<?xml version="1.0" encoding="UTF-8"?>
<svg version="1.1" xmlns="http://www.w3.org/2000/svg" width="512" height="512">
<path d="M0 0 C168.96 0 337.92 0 512 0 C512 168.96 512 337.92 512 512 C343.04 512 174.08 512 0 512 C0 343.04 0 174.08 0 0 Z " fill="#FDFDFD" transform="translate(0,0)"/>
<path d="M0 0 C1.08917221 0.00223572 1.08917221 0.00223572 2.2003479 0.0045166 C12.99969052 0.04435835 23.24961928 0.58712028 33.75 3.3125 C35.43996094 3.71275391 35.43996094 3.71275391 37.1640625 4.12109375 C75.24620226 13.969923 109.41720835 37.98829158 129.63671875 72.03515625 C132.13127249 76.39823151 134.46643149 80.83616094 136.75 85.3125 C137.25015625 86.26125 137.7503125 87.21 138.265625 88.1875 C141.09259313 93.91300507 142.99809276 99.91214197 144.875 106 C145.11702148 106.77714355 145.35904297 107.55428711 145.60839844 108.35498047 C149.46976398 121.40893847 151.25752402 134.06940914 151.14111328 147.64916992 C151.12497784 149.8780608 151.14110427 152.10514639 151.16015625 154.33398438 C151.17443122 164.03002584 150.02471218 172.85340593 147.75 182.3125 C147.56195801 183.14370361 147.37391602 183.97490723 147.18017578 184.83129883 C138.1492348 223.5409956 113.94319112 256.17540542 80.69873047 277.63671875 C68.41562867 285.18456129 55.4226032 290.29471414 41.6875 294.5625 C40.90922852 294.80895264 40.13095703 295.05540527 39.32910156 295.30932617 C27.04738749 298.97836777 14.69499912 299.64237356 1.97216797 299.57324219 C-0.37949193 299.56247944 -2.73039366 299.57322859 -5.08203125 299.5859375 C-16.68352168 299.59790259 -27.5507712 298.41894446 -38.6875 295 C-39.76898315 294.67298096 -39.76898315 294.67298096 -40.87231445 294.33935547 C-71.36461588 284.95035906 -99.02663151 267.02687603 -118.25 241.3125 C-118.97574219 240.35214844 -119.70148438 239.39179688 -120.44921875 238.40234375 C-129.061541 226.51343118 -143.25 206.61474045 -143.25 191.3125 C-124.77 191.3125 -106.29 191.3125 -87.25 191.3125 C-87.25 190.3225 -87.25 189.3325 -87.25 188.3125 C-106.06 188.3125 -124.87 188.3125 -144.25 188.3125 C-148.29497697 172.13259214 -148.25 164.32550479 -148.25 146.3125 C-132.74 146.3125 -117.23 146.3125 -101.25 146.3125 C-101.25 145.3225 -101.25 144.3325 -101.25 143.3125 C-116.76 143.3125 -132.27 143.3125 -148.25 143.3125 C-148.25 140.0125 -148.25 136.7125 -148.25 133.3125 C-133.73 132.9825 -119.21 132.6525 -104.25 132.3125 C-103.92 131.6525 -103.59 130.9925 -103.25 130.3125 C-117.77 130.3125 -132.29 130.3125 -147.25 130.3125 C-144.88125118 113.73125826 -144.88125118 113.73125826 -142.625 106 C-142.36630127 105.11046631 -142.10760254 104.22093262 -141.84106445 103.30444336 C-137.5333755 89.10314556 -130.75718935 76.41777664 -122.25 64.3125 C-121.52554688 63.26964844 -120.80109375 62.22679687 -120.0546875 61.15234375 C-96.95686718 29.55922341 -61.86037489 7.89915858 -23.296875 1.21875 C-15.52875976 0.0710355 -7.83085198 -0.03982718 0 0 Z " fill="#53C953" transform="translate(317.25,20.6875)"/>
<path d="M0 0 C6.097183 3.97282512 9.31430416 11.30050617 12.375 17.671875 C12.70830322 18.34758545 13.04160645 19.0232959 13.38500977 19.71948242 C14.03160358 21.04567743 14.65324316 22.38441313 15.24584961 23.7355957 C16.51743893 26.34761072 17.63842536 28.32639646 20.34350586 29.54882812 C24.69348244 30.67632119 28.95471131 31.19498551 33.4375 30.6875 C36.09403729 28.86227572 36.09403729 28.86227572 38.4375 26.6875 C43.25747776 24.00141531 48.268506 24.42735661 53.625 24.5 C54.53958984 24.50064453 55.45417969 24.50128906 56.39648438 24.50195312 C63.15620325 24.54685163 63.15620325 24.54685163 65.4375 25.6875 C65.4375 33.6075 65.4375 41.5275 65.4375 49.6875 C55.4375 47.6875 55.4375 47.6875 52.4375 46.6875 C53.19975587 48.21201173 53.96211405 49.73647235 54.72485352 51.26074219 C55.41830548 52.64863699 56.11015647 54.03733268 56.80053711 55.42675781 C58.98077514 59.80717074 61.19826934 64.1652863 63.453125 68.5078125 C63.95803467 69.49056152 64.46294434 70.47331055 64.9831543 71.48583984 C65.98553389 73.43639019 66.99727106 75.38216314 68.01879883 77.32275391 C68.47794678 78.22171387 68.93709473 79.12067383 69.41015625 80.046875 C69.82531494 80.84577148 70.24047363 81.64466797 70.66821289 82.46777344 C71.56156652 85.04548567 71.38407716 86.16731794 70.4375 88.6875 C70.1075 89.3475 69.7775 90.0075 69.4375 90.6875 C70.40429688 90.64109375 71.37109375 90.5946875 72.3671875 90.546875 C83.95355088 90.22566889 91.68466712 92.25307708 101.0390625 99.22265625 C102.4375 100.6875 102.4375 100.6875 102.4375 103.6875 C100.1275 105.0075 97.8175 106.3275 95.4375 107.6875 C96.23414063 108.50541016 96.23414063 108.50541016 97.046875 109.33984375 C103.28882081 116.0032348 107.51749485 121.79301056 107.9375 131.125 C107.52363902 140.38513943 104.17041219 146.83513992 97.390625 153.0625 C90.70400208 158.62577027 84.29951063 159.11955662 75.79296875 159.0234375 C68.62098628 158.30540433 63.39182695 155.05277926 58.5 149.875 C54.45199485 144.81499356 51.81420608 139.33596845 52.4375 132.6875 C48.4775 134.6675 48.4775 134.6675 44.4375 136.6875 C43.4475 132.7275 42.4575 128.7675 41.4375 124.6875 C40.77540527 125.82840088 40.11331055 126.96930176 39.43115234 128.14477539 C37.06663332 130.87528615 35.7742844 131.6227328 32.18389893 132.3132019 C27.95277771 132.49874447 23.77082816 132.47506314 19.5390625 132.37109375 C17.97824326 132.35802647 16.41739516 132.34806763 14.85653687 132.34107971 C10.76226548 132.31444164 6.66975199 132.24576048 2.57617188 132.16815186 C-1.60652894 132.09634801 -5.78951583 132.06453193 -9.97265625 132.02929688 C-18.17007465 131.95438139 -26.36606823 131.83502373 -34.5625 131.6875 C-34.54574219 132.78835937 -34.52898437 133.88921875 -34.51171875 135.0234375 C-34.59795236 141.24552415 -37.31458101 146.17152372 -41.4296875 150.77734375 C-48.56708428 157.3454151 -54.85000946 159.17749973 -64.48046875 158.90234375 C-71.98753624 158.3790374 -77.17333966 155.8275815 -82.5625 150.6875 C-87.17017206 144.84646118 -89.5625 139.18642787 -89.5625 131.6875 C-93.1925 131.6875 -96.8225 131.6875 -100.5625 131.6875 C-100.5625 129.0475 -100.5625 126.4075 -100.5625 123.6875 C-124.8175 123.1925 -124.8175 123.1925 -149.5625 122.6875 C-149.5625 121.6975 -149.5625 120.7075 -149.5625 119.6875 C-132.7325 119.6875 -115.9025 119.6875 -98.5625 119.6875 C-97.9025 117.7075 -97.2425 115.7275 -96.5625 113.6875 C-107.1225 113.6875 -117.6825 113.6875 -128.5625 113.6875 C-128.8925 112.6975 -129.2225 111.7075 -129.5625 110.6875 C-128.50861084 110.69910156 -127.45472168 110.71070313 -126.36889648 110.72265625 C-122.434064 110.75534979 -118.50092101 110.73524045 -114.56616211 110.69970703 C-112.86792787 110.69162866 -111.16956334 110.69760283 -109.47143555 110.71826172 C-99.80680709 111.16617999 -99.80680709 111.16617999 -91.0480957 107.97167969 C-89.35125094 105.96084544 -87.97728266 103.90056784 -86.5625 101.6875 C-83.61328125 99.515625 -83.61328125 99.515625 -80.875 97.9375 C-74.78644506 94.38943121 -71.50216287 91.15475831 -68.5625 84.6875 C-74.0075 84.1925 -74.0075 84.1925 -79.5625 83.6875 C-79.5625 78.7375 -79.5625 73.7875 -79.5625 68.6875 C-89.7925 68.6875 -100.0225 68.6875 -110.5625 68.6875 C-110.5625 48.8875 -110.5625 29.0875 -110.5625 8.6875 C-90.4325 8.6875 -70.3025 8.6875 -49.5625 8.6875 C-49.5625 28.4875 -49.5625 48.2875 -49.5625 68.6875 C-39.1675 68.1925 -39.1675 68.1925 -28.5625 67.6875 C-29.8825 66.3675 -31.2025 65.0475 -32.5625 63.6875 C-38.48419931 49.97110383 -33.23943169 33.62452425 -28.328125 20.3515625 C-22.89334872 7.75276294 -15.38931902 -5.66974911 0 0 Z " fill="#FCFEFC" transform="translate(333.5625,111.3125)"/>
<path d="M0 0 C0.7321875 -0.00644531 1.464375 -0.01289063 2.21875 -0.01953125 C8.41060124 0.12602764 12.41046713 1.63052425 17.05078125 5.91015625 C20.64822919 10.57202302 21.9695104 16.37724934 23.625 21.9375 C23.96724609 23.04416016 24.30949219 24.15082031 24.66210938 25.29101562 C26.31957505 30.67536528 27.91560982 36.07582729 29.4375 41.5 C31.07589261 39.04241108 31.9123444 37.44230226 32.8046875 34.7265625 C33.04864258 33.99010498 33.29259766 33.25364746 33.54394531 32.49487305 C33.79756836 31.71281494 34.05119141 30.93075684 34.3125 30.125 C34.57643555 29.32296143 34.84037109 28.52092285 35.11230469 27.69458008 C37.01419383 21.88640522 38.83247612 16.05633012 40.578125 10.19921875 C41.00351562 8.86310547 41.00351562 8.86310547 41.4375 7.5 C41.86289062 6.14841797 41.86289062 6.14841797 42.296875 4.76953125 C43.4375 2.5 43.4375 2.5 45.01171875 1.2109375 C48.746935 0.11623644 52.37676354 0.13129283 56.25 0.125 C57.03181641 0.10050781 57.81363281 0.07601563 58.61914062 0.05078125 C63.12943515 0.02817326 67.16357988 0.35830055 71.00683594 2.87548828 C76.64183428 9.27400006 76.03223501 21.18452438 76.5 29.25 C76.65328951 31.54056463 76.80953229 33.83093356 76.96875 36.12109375 C77.04480469 37.21663574 77.12085938 38.31217773 77.19921875 39.44091797 C77.50895528 43.41735105 77.96561004 47.36078775 78.5 51.3125 C80.06475381 63.09127672 80.58518995 74.63557426 80.4375 86.5 C76.70976672 88.88081693 73.34921514 88.79956874 69 88.8125 C67.70191406 88.82925781 66.40382813 88.84601563 65.06640625 88.86328125 C61.29170315 88.48540462 59.41772236 87.78947924 56.4375 85.5 C55.23622484 83.09744969 55.20365767 81.36655452 55.04858398 78.68310547 C54.98859726 77.68221893 54.92861053 76.6813324 54.86680603 75.65011597 C54.80634598 74.56674957 54.74588593 73.48338318 54.68359375 72.3671875 C54.61842056 71.26021515 54.55324738 70.1532428 54.48609924 69.01272583 C54.2782954 65.46704251 54.07658316 61.92104191 53.875 58.375 C53.73542624 55.97523711 53.59545741 53.57549716 53.45507812 51.17578125 C53.11129571 45.28411302 52.77251781 39.39217276 52.4375 33.5 C50.51367418 39.65794674 48.59778494 45.81153985 46.91015625 52.0390625 C46.67490234 52.88597656 46.43964844 53.73289062 46.19726562 54.60546875 C45.7226434 56.32049023 45.26223165 58.03949364 44.81445312 59.76171875 C43.0689091 65.91630723 43.0689091 65.91630723 40.21484375 68.5546875 C36.68591438 69.75581395 33.66558711 69.9701753 29.9375 70 C28.6484375 70.0309375 27.359375 70.061875 26.03125 70.09375 C21.50197755 69.34543542 20.18243143 68.13213248 17.4375 64.5 C16.03125 61.29296875 16.03125 61.29296875 14.9375 57.6875 C14.73809814 57.04675537 14.53869629 56.40601074 14.33325195 55.74584961 C13.91041714 54.38239279 13.49431265 53.01683315 13.08447266 51.64941406 C12.41159647 49.41394164 11.71483445 47.1870733 11.01171875 44.9609375 C9.80697612 41.14466423 8.61829 37.32374975 7.4375 33.5 C6.42245312 43.78474073 6.13113348 54.05760837 5.88525391 64.38110352 C5.69631552 72.13191071 5.47385178 79.80508803 4.4375 87.5 C0.78829022 88.71640326 -2.63329743 88.79960139 -6.4375 88.875 C-7.49904297 88.93107422 -7.49904297 88.93107422 -8.58203125 88.98828125 C-12.17829102 89.04855376 -14.43927169 88.5700961 -17.5703125 86.7890625 C-19.78415701 83.13404862 -19.79551521 81.80263702 -19.72583008 77.63549805 C-19.70760193 76.4729248 -19.68937378 75.31035156 -19.67059326 74.11254883 C-19.50019832 68.41783621 -19.24927157 62.73184056 -18.94140625 57.04296875 C-18.87718979 55.8151619 -18.81297333 54.58735504 -18.74681091 53.32234192 C-18.61143114 50.75004437 -18.47437271 48.17783466 -18.33569336 45.60571289 C-18.12463635 41.68073721 -17.92035278 37.75544921 -17.71679688 33.83007812 C-17.58373572 31.31768699 -17.45028572 28.80531641 -17.31640625 26.29296875 C-17.2559462 25.12823532 -17.19548615 23.96350189 -17.13319397 22.76347351 C-16.23461298 6.30653558 -16.23461298 6.30653558 -13.0625 2.5 C-8.97570246 -0.02545318 -4.67092742 0.03992246 0 0 Z " fill="#A62027" transform="translate(216.5625,341.5)"/>
<path d="M0 0 C1.28003906 -0.01224609 2.56007812 -0.02449219 3.87890625 -0.03710938 C14.90156774 -0.05420761 25.92516346 1.14396338 34.43359375 8.96484375 C39.63477315 14.86450288 39.90386174 19.88383332 39.84765625 27.65625 C39.36743806 32.53397181 37.88860252 35.67919141 34.5 39.1875 C30.46875 42.1875 30.46875 42.1875 27.5 42.1875 C27.5 42.8475 27.5 43.5075 27.5 44.1875 C28.180625 44.22875 28.86125 44.27 29.5625 44.3125 C34.6019899 45.81362465 38.06606325 49.28222292 41.1875 53.4296875 C43.93223903 59.19690702 43.37482039 67.35857597 41.9609375 73.546875 C38.93304855 81.06668712 33.66072261 84.94153755 26.48046875 88.06640625 C18.04705191 91.40429781 9.78786949 91.4000441 0.8125 91.4375 C-0.40373047 91.458125 -1.61996094 91.47875 -2.87304688 91.5 C-11.85378194 91.53856462 -22.17724276 91.09294938 -29.5 85.1875 C-31.90751262 81.58548215 -31.77142548 78.25590341 -31.80639648 74.00390625 C-31.81472 73.28798309 -31.82304352 72.57205994 -31.83161926 71.83444214 C-31.85567367 69.47290582 -31.86448428 67.11164574 -31.87109375 64.75 C-31.88006136 63.10620034 -31.88918323 61.46240151 -31.89845276 59.81860352 C-31.91493133 56.37546811 -31.92264118 52.93242983 -31.92553711 49.48925781 C-31.93092944 45.07710947 -31.96864836 40.66587297 -32.01428127 36.25398254 C-32.04401544 32.86019549 -32.05125981 29.4666294 -32.05226326 26.07272339 C-32.05647044 24.44599212 -32.0689248 22.81926048 -32.08978081 21.19265747 C-32.11663092 18.91811792 -32.11189196 16.64571068 -32.09936523 14.37109375 C-32.10443588 13.07743896 -32.10950653 11.78378418 -32.11473083 10.45092773 C-31.5 7.1875 -31.5 7.1875 -29.07582092 4.81274414 C-28.22580002 4.27641357 -27.37577911 3.74008301 -26.5 3.1875 C-25.901875 2.795625 -25.30375 2.40375 -24.6875 2 C-17.0347703 -0.84244246 -8.01621103 0.00403636 0 0 Z " fill="#282D65" transform="translate(149.5,339.8125)"/>
<path d="M0 0 C0.83257324 0.00894287 1.66514648 0.01788574 2.52294922 0.02709961 C14.01046823 0.24390884 21.18205629 1.86955629 29.5625 10.25 C30.12406303 15.13836018 30.40615411 19.6848807 27.5625 23.875 C26.9025 24.65875 26.2425 25.4425 25.5625 26.25 C21.50555579 25.81141144 18.12506618 24.7079423 14.375 23.1875 C5.53336728 19.92124055 -2.27182229 20.39052786 -10.98828125 23.921875 C-16.19480439 26.74518898 -19.8827542 31.56519831 -21.96484375 37.11328125 C-23.86642829 45.70970062 -23.11813149 54.70367577 -18.4375 62.25 C-16.31647338 64.6170854 -14.10130097 66.52086604 -11.4375 68.25 C-10.60992187 68.81847656 -10.60992187 68.81847656 -9.765625 69.3984375 C-6.12192234 70.73120122 -2.53112641 70.45786425 1.3125 70.375 C2.10527344 70.36597656 2.89804688 70.35695313 3.71484375 70.34765625 C5.66419281 70.32417012 7.61338575 70.28830137 9.5625 70.25 C9.5625 65.63 9.5625 61.01 9.5625 56.25 C4.2825 56.25 -0.9975 56.25 -6.4375 56.25 C-8.06456328 52.18234181 -8.74885317 50.30544989 -8.8125 46.1875 C-8.84085938 45.35089844 -8.86921875 44.51429688 -8.8984375 43.65234375 C-8.2590599 40.31999441 -7.11379147 39.31898227 -4.4375 37.25 C-1.81596204 36.85140139 0.37858029 36.6878329 2.99609375 36.71875 C3.71104507 36.7149231 4.4259964 36.71109619 5.16261292 36.70715332 C6.67132987 36.70443741 8.18009417 36.71177636 9.6887207 36.72851562 C11.98952095 36.74990259 14.28718813 36.72872392 16.58789062 36.703125 C18.05729852 36.70576895 19.52670447 36.71089534 20.99609375 36.71875 C21.67957382 36.71065308 22.36305389 36.70255615 23.06724548 36.69421387 C26.33942762 36.75794264 28.56743432 37.2525023 31.49389648 38.73657227 C34.49704381 42.38550437 34.2835734 45.39548432 34.2265625 49.99609375 C34.23134613 50.84422134 34.23612976 51.69234894 34.24105835 52.56617737 C34.24445608 54.35736956 34.23526231 56.14862387 34.21435547 57.93969727 C34.18761821 60.67540532 34.21408715 63.40699863 34.24609375 66.14257812 C34.24278898 67.88542569 34.23638134 69.62827071 34.2265625 71.37109375 C34.24174423 72.59317787 34.24174423 72.59317787 34.25723267 73.83995056 C34.16879466 78.14671186 33.95869304 79.76248247 31.14550781 83.22412109 C29.01063075 84.89852656 27.12646644 86.27873794 24.6875 87.4375 C24.07132812 87.74042969 23.45515625 88.04335938 22.8203125 88.35546875 C15.1255863 91.40407135 8.18896339 91.64820732 -0.0625 91.6875 C-1.25746094 91.72037109 -2.45242187 91.75324219 -3.68359375 91.78710938 C-17.08101424 91.86694232 -27.97180831 87.51996195 -37.5234375 78.21875 C-44.2798359 71.08560076 -49.20761775 63.29913825 -49.4375 53.25 C-49.47617187 52.08984375 -49.51484375 50.9296875 -49.5546875 49.734375 C-49.80573679 35.73140362 -47.7536123 25.51379524 -38.17578125 14.6953125 C-27.30300687 4.29526744 -14.83065995 -0.17968321 0 0 Z " fill="#282D65" transform="translate(77.4375,339.75)"/>
<path d="M0 0 C20.13 0 40.26 0 61 0 C61 19.8 61 39.6 61 60 C76.51 60 92.02 60 108 60 C108 64.62 108 69.24 108 74 C82.59 74 57.18 74 31 74 C31 69.38 31 64.76 31 60 C20.77 60 10.54 60 0 60 C0 40.2 0 20.4 0 0 Z " fill="#FCFEFC" transform="translate(223,120)"/>
<path d="M0 0 C0.78181641 -0.02449219 1.56363281 -0.04898437 2.36914062 -0.07421875 C6.87943515 -0.09682674 10.91357988 0.23330055 14.75683594 2.75048828 C20.39183428 9.14900006 19.78223501 21.05952438 20.25 29.125 C20.40328951 31.41556463 20.55953229 33.70593356 20.71875 35.99609375 C20.79480469 37.09163574 20.87085938 38.18717773 20.94921875 39.31591797 C21.25895528 43.29235105 21.71561004 47.23578775 22.25 51.1875 C23.81475381 62.96627672 24.33518995 74.51057426 24.1875 86.375 C20.45976672 88.75581693 17.09921514 88.67456874 12.75 88.6875 C11.45191406 88.70425781 10.15382813 88.72101563 8.81640625 88.73828125 C5.04170315 88.36040462 3.16772236 87.66447924 0.1875 85.375 C-1.01377516 82.97244969 -1.04634233 81.24155452 -1.20141602 78.55810547 C-1.26140274 77.55721893 -1.32138947 76.5563324 -1.38319397 75.52511597 C-1.44365402 74.44174957 -1.50411407 73.35838318 -1.56640625 72.2421875 C-1.66416603 70.58172897 -1.66416603 70.58172897 -1.76390076 68.88772583 C-1.9717046 65.34204251 -2.17341684 61.79604191 -2.375 58.25 C-2.51457376 55.85023711 -2.65454259 53.45049716 -2.79492188 51.05078125 C-3.13870429 45.15911302 -3.47748219 39.26717276 -3.8125 33.375 C-6.46442518 41.87501244 -6.46442518 41.87501244 -8.97265625 50.41796875 C-9.27042969 51.45566406 -9.56820313 52.49335938 -9.875 53.5625 C-10.17535156 54.62855469 -10.47570312 55.69460938 -10.78515625 56.79296875 C-11.8125 59.375 -11.8125 59.375 -14.8125 61.375 C-17.33203125 61.25390625 -17.33203125 61.25390625 -19.8125 60.375 C-22.08114421 57.69600671 -23.38896115 54.5690334 -24.8125 51.375 C-25.12058594 50.75367188 -25.42867187 50.13234375 -25.74609375 49.4921875 C-28.19627871 43.09678946 -24.98798468 37.48664206 -22.60644531 31.48486328 C-20.83383216 26.7742474 -19.43537592 21.93284638 -17.95703125 17.1237793 C-17.25730908 14.86903933 -16.53875407 12.62132072 -15.8125 10.375 C-15.46300293 9.24723145 -15.46300293 9.24723145 -15.10644531 8.09667969 C-13.36102978 2.86985502 -13.36102978 2.86985502 -11.17578125 0.8984375 C-7.44830353 0.07284739 -3.80790129 0.00618668 0 0 Z " fill="#292E66" transform="translate(272.8125,341.625)"/>
<path d="M0 0 C2.8451304 2.38151567 5.01448045 4.87204305 7 8 C7.34780518 8.53584717 7.69561035 9.07169434 8.05395508 9.6237793 C9.4127782 13.03679231 9.36490514 16.39639423 9.40625 20.01953125 C9.41765015 20.79632736 9.42905029 21.57312347 9.4407959 22.37345886 C9.4596545 24.01494942 9.47274745 25.65651498 9.48046875 27.2980957 C9.49986013 29.79449389 9.56191323 32.28757916 9.625 34.78320312 C9.80523956 48.15111028 9.80523956 48.15111028 6.28125 52.484375 C-1.26942196 59.04452153 -10.61077464 59.37302374 -20.1875 59.5 C-21.11369141 59.51861084 -22.03988281 59.53722168 -22.99414062 59.55639648 C-30.774144 59.48489931 -36.89527569 57.63226627 -42.875 52.5625 C-47.57187576 46.89862041 -48.50059533 43.16193149 -48.27734375 35.875 C-47.85802282 31.52823657 -46.866502 28.67572958 -43.57397461 25.71972656 C-39.06344973 22.30208335 -35.19004317 20.97212913 -29.625 20.1875 C-28.8812915 20.06914795 -28.13758301 19.9507959 -27.37133789 19.82885742 C-22.20564612 19.05058921 -17.22614185 18.71493772 -12 19 C-13.11854586 15.27385847 -13.11854586 15.27385847 -16 13 C-18.51162098 12.90023935 -20.98879316 12.85896127 -23.5 12.875 C-24.21671875 12.87693359 -24.9334375 12.87886719 -25.671875 12.88085938 C-31.15672709 12.92525116 -36.56060177 13.26777332 -42 14 C-44.33704506 10.91510052 -45.0064284 9.36641906 -44.9375 5.4375 C-43.88462921 1.57697377 -43.26986976 0.26375599 -40 -2 C-27.60642858 -5.74783765 -11.65734773 -6.10865383 0 0 Z " fill="#A62229" transform="translate(355,372)"/>
<path d="M0 0 C3.05551155 4.62455802 2.12719679 9.65773492 2 15 C7.28 15 12.56 15 18 15 C20.20028282 19.40056565 20.65065331 22.19896723 20 27 C18.25746655 30.23613354 17.52814056 30.82395315 14 32 C11.93854893 32.068991 9.87498599 32.08467727 7.8125 32.0625 C6.18248047 32.04896484 6.18248047 32.04896484 4.51953125 32.03515625 C3.68808594 32.02355469 2.85664063 32.01195312 2 32 C2.13818532 35.47951523 2.28682601 38.95850495 2.4375 42.4375 C2.47681641 43.43072266 2.51613281 44.42394531 2.55664062 45.44726562 C2.59853516 46.39150391 2.64042969 47.33574219 2.68359375 48.30859375 C2.72025146 49.18314209 2.75690918 50.05769043 2.79467773 50.95874023 C2.78181066 52.9927402 2.78181066 52.9927402 4 54 C7.32947093 54.28538322 10.65897628 54.44892633 13.99609375 54.62109375 C17 55 17 55 19 57 C19.44953984 61.57032175 19.64756049 63.89674879 17.3125 67.875 C12.02230139 72.73626358 6.31608414 72.36486124 -0.546875 72.25 C-6.40856753 71.82562407 -10.22484422 70.42784269 -14.875 66.6875 C-18.5236656 62.07301116 -19.25144529 57.59253297 -19.22705078 51.81103516 C-19.22689972 50.61024323 -19.22674866 49.40945129 -19.22659302 48.17227173 C-19.21627045 46.89081268 -19.20594788 45.60935364 -19.1953125 44.2890625 C-19.1915779 42.95242526 -19.18873304 41.61578526 -19.18673706 40.27914429 C-19.17913577 36.77744868 -19.15951788 33.2759215 -19.1373291 29.77429199 C-19.11679474 26.19460325 -19.10771918 22.61488704 -19.09765625 19.03515625 C-19.07626829 12.02336873 -19.04217516 5.01169247 -19 -2 C-11.94077821 -3.5170598 -6.20596839 -4.13731226 0 0 Z " fill="#A7242B" transform="translate(446,359)"/>
<path d="M0 0 C0.66 0 1.32 0 2 0 C2.24234375 0.73605469 2.4846875 1.47210938 2.734375 2.23046875 C5.46121115 11.01528368 5.46121115 11.01528368 12 17 C14.17378455 17.36168513 16.35514153 17.67830169 18.5390625 17.97265625 C20.49199219 18.23852539 20.49199219 18.23852539 22.484375 18.50976562 C23.86457311 18.69408695 25.24478159 18.87833074 26.625 19.0625 C28.01306491 19.25032557 29.40108636 19.43847265 30.7890625 19.62695312 C34.19229299 20.08780725 37.59593664 20.54534554 41 21 C42.31496233 24.91584433 43.62654223 28.83281337 44.9375 32.75 C45.31068359 33.86117187 45.68386719 34.97234375 46.06835938 36.1171875 C46.42607422 37.18710938 46.78378906 38.25703125 47.15234375 39.359375 C47.48226318 40.34389648 47.81218262 41.32841797 48.15209961 42.34277344 C51.07196314 51.49330459 52.19745463 63.7584264 47.875 72.625 C46.94529158 74.10174681 45.98737843 75.56117314 45 77 C44.60039062 77.79535156 44.20078125 78.59070313 43.7890625 79.41015625 C42.37516188 81.90804735 41.38065741 83.38059932 39 85 C34.51095745 85.47627647 30.37883283 85.07656387 26 84 C24 82 24 82 23.875 79.375 C23.91625 78.59125 23.9575 77.8075 24 77 C24.99 77 25.98 77 27 77 C27.0825 75.865625 27.165 74.73125 27.25 73.5625 C27.76083551 68.75149696 28.89392812 64.1819386 30.0625 59.5 C32.21346874 50.84585354 32.21346874 50.84585354 32 42 C26.67343751 34.09606856 14.49455338 33.01369903 5.75390625 30.98242188 C1.00738482 29.80152403 -2.52940783 28.66378617 -6 25 C-7.61974145 16.16504662 -3.31242173 8.03459437 0 0 Z " fill="#55CA55" transform="translate(332,136)"/>
<path d="M0 0 C1.57170996 3.14341993 1.23175783 6.55771451 1 10 C0.67 10.99 0.34 11.98 0 13 C-6.27 13.99 -12.54 14.98 -19 16 C-19.33 29.86 -19.66 43.72 -20 58 C-22.92048739 59.46024369 -25.56056084 59.28646553 -28.8125 59.375 C-30.03582031 59.42398438 -31.25914062 59.47296875 -32.51953125 59.5234375 C-37.10318672 58.83408864 -38.22884869 57.69951312 -41 54 C-41.76763361 50.56881043 -41.77212852 47.20140223 -41.76953125 43.6953125 C-41.7814299 42.69797089 -41.79332855 41.70062927 -41.80558777 40.67306519 C-41.82210896 38.56677299 -41.82549785 36.46034231 -41.81665039 34.35400391 C-41.81252078 31.14116958 -41.87756855 27.93463231 -41.94726562 24.72265625 C-41.95474741 22.67188606 -41.95813701 20.62109604 -41.95703125 18.5703125 C-41.98263626 17.61593292 -42.00824127 16.66155334 -42.03462219 15.67825317 C-41.96565054 11.66323127 -41.84335443 9.03998871 -39.26010132 5.85443115 C-29.79903686 -2.56608547 -11.35356062 -8.19979378 0 0 Z " fill="#A62229" transform="translate(417,371)"/>
<path d="M0 0 C1.12728516 -0.0309375 1.12728516 -0.0309375 2.27734375 -0.0625 C8.67524386 -0.10716248 12.59652427 1.23731615 17.37890625 5.70703125 C20.82123283 10.17724617 22.10734334 15.60346453 23.6875 20.9375 C24.02813477 22.04077637 24.36876953 23.14405273 24.71972656 24.28076172 C25.74315348 27.59994528 26.74874722 30.92406882 27.75 34.25 C28.57833555 36.98465458 29.40983621 39.71811921 30.25219727 42.44848633 C30.73406201 44.012069 31.20784752 45.57817587 31.67163086 47.1472168 C33.14506463 51.95436981 35.11654991 55.96220306 37.75 60.25 C39.73 60.25 41.71 60.25 43.75 60.25 C42.28238801 66.85425395 42.28238801 66.85425395 40.13671875 68.44921875 C36.81849761 69.56253353 33.8077741 69.62861035 30.3125 69.6875 C28.36537109 69.74744141 28.36537109 69.74744141 26.37890625 69.80859375 C21.81165126 69.10556096 20.50939968 67.90447377 17.75 64.25 C16.37890625 61.1484375 16.37890625 61.1484375 15.3125 57.625 C15.11350098 56.98473877 14.91450195 56.34447754 14.70947266 55.68481445 C14.2771484 54.29097579 13.85128244 52.89512119 13.43115234 51.49755859 C12.71139159 49.12260608 11.96277183 46.75827039 11.20703125 44.39453125 C6.94440613 31.04111168 6.94440613 31.04111168 5.25 24.5625 C3.26296346 17.86501801 -1.30913085 11.9276809 -7.25 8.25 C-9.91086166 7.38459826 -12.49867356 6.80959182 -15.25 6.25 C-9.96004771 0.82083844 -7.45179617 0.05009611 0 0 Z " fill="#EB4E29" transform="translate(216.25,341.75)"/>
<path d="M0 0 C4.70501285 3.34981645 8.90339741 7.39769222 10.75 12.9375 C11.45393296 20.08068858 11.13239913 26.06431407 6.75 31.9375 C1.75564346 37.36719997 -3.22461778 39.88079639 -10.625 40.375 C-16.55029218 40.22537141 -20.61974937 37.48764147 -24.7890625 33.4453125 C-29.74677337 27.84976748 -30.65567463 22.83844375 -30.5 15.58984375 C-29.83302912 8.51369961 -25.3509242 4.5685872 -20.1875 0.1875 C-14.3903301 -3.55260961 -5.85032733 -3.43144199 0 0 Z " fill="#F2F2F2" transform="translate(493.25,331.0625)"/>
<path d="M0 0 C0.78181641 -0.02449219 1.56363281 -0.04898437 2.36914062 -0.07421875 C8.10810482 -0.10298549 11.51654749 0.99237557 16.1875 4.375 C16.6825 5.86 16.6825 5.86 17.1875 7.375 C16.011875 7.54 14.83625 7.705 13.625 7.875 C7.40647959 9.44889101 4.24694666 13.9776135 1.0390625 19.26953125 C-1.7778985 24.98232815 -3.2279181 31.21845471 -4.8828125 37.34130859 C-6.29333772 42.55614147 -7.78012422 47.73290161 -9.4375 52.875 C-9.82164062 54.0815625 -10.20578125 55.288125 -10.6015625 56.53125 C-11.8125 59.375 -11.8125 59.375 -14.8125 61.375 C-17.33203125 61.25390625 -17.33203125 61.25390625 -19.8125 60.375 C-22.08114421 57.69600671 -23.38896115 54.5690334 -24.8125 51.375 C-25.12058594 50.75367188 -25.42867187 50.13234375 -25.74609375 49.4921875 C-28.19627871 43.09678946 -24.98798468 37.48664206 -22.60644531 31.48486328 C-20.83383216 26.7742474 -19.43537592 21.93284638 -17.95703125 17.1237793 C-17.25730908 14.86903933 -16.53875407 12.62132072 -15.8125 10.375 C-15.46300293 9.24723145 -15.46300293 9.24723145 -15.10644531 8.09667969 C-13.36102978 2.86985502 -13.36102978 2.86985502 -11.17578125 0.8984375 C-7.44830353 0.07284739 -3.80790129 0.00618668 0 0 Z " fill="#2595BB" transform="translate(272.8125,341.625)"/>
<path d="M0 0 C8.05263158 1.15037594 8.05263158 1.15037594 12 6 C16.7283678 13.67741949 13.82484393 24.7230293 12 33 C12.99 33 13.98 33 15 33 C14.71122471 34.3547862 14.41879283 35.70879302 14.125 37.0625 C13.96257812 37.81660156 13.80015625 38.57070312 13.6328125 39.34765625 C12.85768168 42.59650704 11.9340402 45.79365192 11 49 C-4.15847758 50.06345667 -4.15847758 50.06345667 -8.39453125 47.6171875 C-9.9633867 45.78222239 -11.00895502 44.19901397 -12 42 C-12.36480469 41.22527344 -12.72960937 40.45054687 -13.10546875 39.65234375 C-15.39105459 32.87543203 -14.90052082 25.17767248 -12 18.6875 C-11.34 17.470625 -10.68 16.25375 -10 15 C-6.7 15 -3.4 15 0 15 C0 10.05 0 5.1 0 0 Z " fill="#54C954" transform="translate(332,180)"/>
<path d="M0 0 C2.97634925 1.64897935 5.04971166 3.17914687 6.6875 6.25 C6.6875 6.91 6.6875 7.57 6.6875 8.25 C13.1225 7.755 13.1225 7.755 19.6875 7.25 C19.6875 7.91 19.6875 8.57 19.6875 9.25 C16.0575 9.58 12.4275 9.91 8.6875 10.25 C8.77 11.57 8.8525 12.89 8.9375 14.25 C8.90519819 19.38598766 7.83806435 23.15604633 4.6875 27.25 C0.76952874 30.96936442 -3.04768895 32.56086726 -8.4375 32.8125 C-14.37011221 32.48493245 -17.63139228 30.11789747 -21.5625 25.75 C-24.92825274 20.94178179 -26.20860774 17.23151916 -25.3125 11.25 C-23.35893057 5.85548441 -19.8819878 2.55558692 -15.3125 -0.75 C-9.82552475 -2.57899175 -5.18570504 -2.43976898 0 0 Z " fill="#FBFDFB" transform="translate(341.3125,72.75)"/>
<path d="M0 0 C2.84625 -0.061875 5.6925 -0.12375 8.625 -0.1875 C9.51010254 -0.21481201 10.39520508 -0.24212402 11.30712891 -0.27026367 C17.51178405 -0.33520098 21.5873215 0.9047792 26.375 5.0625 C28.75795561 9.37015052 28.62772477 13.18479477 28 18 C26.67247624 21.8166308 25.13794846 22.89791814 21.875 25.3125 C15.24176588 28.42886848 7.06813309 27.22087916 0 27 C0 18.09 0 9.18 0 0 Z " fill="#131313" transform="translate(311,437)"/>
<path d="M0 0 C1.98 0 3.96 0 6 0 C6.33 0.66 6.66 1.32 7 2 C7.33 1.67 7.66 1.34 8 1 C11.38168693 0.56163318 14.62344355 0.51314767 18 1 C21.0625 3.4375 21.0625 3.4375 23 6 C23.33 6.33 23.66 6.66 24 7 C24.4781408 11.70171791 24.72931068 14.67405856 21.6875 18.4375 C18.40791163 21.56454937 16.93450553 21.96721033 12.4375 22.125 C9 22 9 22 7 21 C7 23.64 7 26.28 7 29 C4.69 29 2.38 29 0 29 C0 19.43 0 9.86 0 0 Z " fill="#141414" transform="translate(231,442)"/>
<path d="M0 0 C0.94875 0.04125 1.8975 0.0825 2.875 0.125 C3.65423828 1.68347656 3.65423828 1.68347656 4.44921875 3.2734375 C4.78501953 3.94487793 5.12082031 4.61631836 5.46679688 5.30810547 C6.19908829 6.77301462 6.93085663 8.23818537 7.66210938 9.70361328 C9.26944879 12.92328827 10.8822354 16.13916144 12.51953125 19.34375 C12.96683594 20.2203125 13.41414063 21.096875 13.875 22 C14.266875 22.76054687 14.65875 23.52109375 15.0625 24.3046875 C15.875 26.125 15.875 26.125 15.875 28.125 C12.5625 28.4375 12.5625 28.4375 8.875 28.125 C8.2253125 26.90296875 8.2253125 26.90296875 7.5625 25.65625 C6.07235586 22.79059202 6.07235586 22.79059202 2.73828125 22.41796875 C1.56652344 22.38316406 0.39476562 22.34835937 -0.8125 22.3125 C-1.99199219 22.26480469 -3.17148438 22.21710938 -4.38671875 22.16796875 C-5.74216797 22.14669922 -5.74216797 22.14669922 -7.125 22.125 C-7.785 24.105 -8.445 26.085 -9.125 28.125 C-11.435 28.125 -13.745 28.125 -16.125 28.125 C-14.30577805 21.87142454 -11.82004405 16.07327232 -9.0625 10.1875 C-8.70994141 9.42961182 -8.35738281 8.67172363 -7.99414062 7.89086914 C-7.65447266 7.17535889 -7.31480469 6.45984863 -6.96484375 5.72265625 C-6.65925537 5.07820557 -6.35366699 4.43375488 -6.03881836 3.76977539 C-4.32859504 0.69155618 -3.57974725 0.14318989 0 0 Z " fill="#151515" transform="translate(213.125,435.875)"/>
<path d="M0 0 C3.06345144 -0.10822792 6.1230601 -0.18741479 9.1875 -0.25 C10.05181641 -0.28351563 10.91613281 -0.31703125 11.80664062 -0.3515625 C15.96456343 -0.41528545 18.39332078 -0.34063231 22.08203125 1.73046875 C24.2336534 4.27648193 24.63329342 5.28014943 24.5 8.5625 C24.4896875 9.32691406 24.479375 10.09132813 24.46875 10.87890625 C23.88087699 13.53903162 23.16355294 14.3631014 21 16 C17.06520032 18.03500808 13.76989905 18.24306769 9.375 18.1875 C7.68503906 18.17783203 7.68503906 18.17783203 5.9609375 18.16796875 C3 18 3 18 0 17 C0 11.39 0 5.78 0 0 Z " fill="#F2F3F4" transform="translate(142,394)"/>
<path d="M0 0 C4.70501285 3.34981645 8.90339741 7.39769222 10.75 12.9375 C11.45393296 20.08068858 11.13239913 26.06431407 6.75 31.9375 C1.75564346 37.36719997 -3.22461778 39.88079639 -10.625 40.375 C-16.55029218 40.22537141 -20.61974937 37.48764147 -24.7890625 33.4453125 C-29.74677337 27.84976748 -30.65567463 22.83844375 -30.5 15.58984375 C-29.83302912 8.51369961 -25.3509242 4.5685872 -20.1875 0.1875 C-14.3903301 -3.55260961 -5.85032733 -3.43144199 0 0 Z M-24.25 7.9375 C-25.2090625 9.0203125 -25.2090625 9.0203125 -26.1875 10.125 C-28.16890109 15.36988523 -28.38370704 21.02086906 -26.3359375 26.2890625 C-23.77766956 30.69588534 -20.9861246 33.87082745 -16.25 35.9375 C-10.84143114 36.66065127 -5.31317075 36.89396984 -0.3125 34.4375 C4.29710132 30.67456015 7.12472275 27.19178389 8.265625 21.25390625 C8.57481315 16.18743677 8.05482935 12.64284873 5.125 8.4375 C1.39955315 4.23884397 -1.59051641 2.27079446 -7.2734375 1.55859375 C-14.91389271 1.14772259 -19.39077792 1.86712046 -24.25 7.9375 Z " fill="#171717" transform="translate(493.25,331.0625)"/>
<path d="M0 0 C2.31 0 4.62 0 7 0 C7.33 4.62 7.66 9.24 8 14 C8.99 13.01 9.98 12.02 11 11 C13.86074388 8.50781822 15.62463052 7.58422065 19.4375 7.625 C20.613125 7.74875 21.78875 7.8725 23 8 C22.3503125 8.68835938 22.3503125 8.68835938 21.6875 9.390625 C21.130625 10.00421875 20.57375 10.6178125 20 11.25 C19.443125 11.85328125 18.88625 12.4565625 18.3125 13.078125 C16.62402557 15.162653 16.62402557 15.162653 17 19 C18.51635232 21.14173855 18.51635232 21.14173855 20.5 23.125 C24 26.80555556 24 26.80555556 24 29 C18.89119171 29.61658031 18.89119171 29.61658031 16 29 C13.55696597 26.96073101 11.7722575 24.63153386 10 22 C9.34 22.33 8.68 22.66 8 23 C7.34227572 26.02934491 7.34227572 26.02934491 7 29 C5.00045254 29.04254356 2.99958364 29.04080783 1 29 C0 28 0 28 -0.11352539 25.31616211 C-0.10828857 24.14835205 -0.10305176 22.98054199 -0.09765625 21.77734375 C-0.09443359 20.51728516 -0.09121094 19.25722656 -0.08789062 17.95898438 C-0.07953403 16.61848891 -0.07106907 15.27799412 -0.0625 13.9375 C-0.0574866 12.59310058 -0.05292342 11.2486994 -0.04882812 9.90429688 C-0.03699488 6.60282059 -0.02050971 3.30143197 0 0 Z " fill="#151515" transform="translate(371,435)"/>
<path d="M0 0 C4.1146875 -0.0928125 4.1146875 -0.0928125 8.3125 -0.1875 C9.60281128 -0.22846802 9.60281128 -0.22846802 10.91918945 -0.27026367 C11.60198975 -0.27775635 12.28479004 -0.28524902 12.98828125 -0.29296875 C14.03302612 -0.31653442 14.03302612 -0.31653442 15.09887695 -0.34057617 C17.61857831 0.11081504 18.47514782 0.97357089 20 3 C20.4375 6.4375 20.4375 6.4375 20 10 C18 12.4375 18 12.4375 16 14 C16.433125 14.63808594 16.86625 15.27617187 17.3125 15.93359375 C17.869375 16.75988281 18.42625 17.58617187 19 18.4375 C19.556875 19.26121094 20.11375 20.08492188 20.6875 20.93359375 C22 23 22 23 22 24 C19.4375 24.5625 19.4375 24.5625 16 24 C13.95108854 21.82141059 12.29540933 19.53739439 10.61328125 17.06640625 C9.09017336 14.72273725 9.09017336 14.72273725 6 14 C6 17.3 6 20.6 6 24 C4.02 24 2.04 24 0 24 C0 16.08 0 8.16 0 0 Z " fill="#131313" transform="translate(474,338)"/>
<path d="M0 0 C5.61627729 3.4639315 5.61627729 3.4639315 6.47729492 6.91064453 C6.59045846 9.07473826 6.52566452 11.15104365 6.375 13.3125 C6.34792969 14.05306641 6.32085937 14.79363281 6.29296875 15.55664062 C6.22268284 17.37235998 6.11507089 19.18656801 6 21 C4.88625 20.979375 3.7725 20.95875 2.625 20.9375 C-0.83215921 20.73619282 -0.83215921 20.73619282 -3 22 C-10.14621131 22.57630736 -10.14621131 22.57630736 -13.5 20.3125 C-15 18 -15 18 -15.5625 15.5 C-15 13 -15 13 -13.0625 10.6875 C-8.94978453 8.42130984 -5.59291877 8.63977108 -1 9 C-1 8.01 -1 7.02 -1 6 C-4.63 6.33 -8.26 6.66 -12 7 C-12.66 5.68 -13.32 4.36 -14 3 C-9.75903004 -0.28333158 -5.19983648 -1.29782454 0 0 Z " fill="#191919" transform="translate(436,442)"/>
<path d="M0 0 C3.26171875 1.48046875 3.26171875 1.48046875 6 4 C6.73229295 6.94902425 6.57001964 9.7346964 6.375 12.75 C6.34792969 13.54277344 6.32085937 14.33554687 6.29296875 15.15234375 C6.22247273 17.10273366 6.11485499 19.05171901 6 21 C4.88625 20.979375 3.7725 20.95875 2.625 20.9375 C-0.83215921 20.73619282 -0.83215921 20.73619282 -3 22 C-10.14595496 22.45371143 -10.14595496 22.45371143 -13 20.9375 C-14.60318593 17.83132725 -14.42751128 15.42009021 -14 12 C-12.5625 10.0625 -12.5625 10.0625 -10 9 C-6.98178886 8.77142635 -4.01987345 8.82577653 -1 9 C-1 8.01 -1 7.02 -1 6 C-4.63 6.33 -8.26 6.66 -12 7 C-12.66 5.68 -13.32 4.36 -14 3 C-9.69079585 -0.33615805 -5.27902034 -1.10087945 0 0 Z " fill="#090909" transform="translate(411,442)"/>
<path d="M0 0 C2.206875 -0.061875 4.41375 -0.12375 6.6875 -0.1875 C8.54955078 -0.23970703 8.54955078 -0.23970703 10.44921875 -0.29296875 C15.20179198 0.09915775 17.68203836 1.68203836 21 5 C21.73362445 10.68558952 21.73362445 10.68558952 21 13 C16.56898116 16.91293048 12.82788613 17.53508124 7.125 17.25 C4.77375 17.1675 2.4225 17.085 0 17 C0 11.39 0 5.78 0 0 Z " fill="#F8F9F9" transform="translate(143,359)"/>
<path d="M0 0 C2.31 0 4.62 0 7 0 C7 7.26 7 14.52 7 22 C2.66875 22.1546875 2.66875 22.1546875 -1.75 22.3125 C-3.10496582 22.38078003 -3.10496582 22.38078003 -4.48730469 22.45043945 C-8.43502449 22.51882307 -10.37458897 22.48812568 -13.5625 20 C-15.44823959 16.06454347 -15.44963883 12.98357396 -15.25 8.6875 C-15.23195313 7.94693359 -15.21390625 7.20636719 -15.1953125 6.44335938 C-15.14847337 4.6283429 -15.07673789 2.81399834 -15 1 C-13.02 1 -11.04 1 -9 1 C-8.67 5.95 -8.34 10.9 -8 16 C-5.69 15.34 -3.38 14.68 -1 14 C-0.67 9.38 -0.34 4.76 0 0 Z " fill="#171717" transform="translate(359,442)"/>
<path d="M0 0 C2.66666667 0 5.33333333 0 8 0 C9.12728516 -0.03480469 9.12728516 -0.03480469 10.27734375 -0.0703125 C11.15519531 -0.08835937 12.03304688 -0.10640625 12.9375 -0.125 C13.81277344 -0.14820313 14.68804687 -0.17140625 15.58984375 -0.1953125 C18 0 18 0 21 2 C22.25433458 5.76300374 22.10695422 9.27210909 22.0625 13.1875 C22.05798828 13.93708984 22.05347656 14.68667969 22.04882812 15.45898438 C22.03706354 17.30602383 22.01912865 19.15302213 22 21 C20.02 21 18.04 21 16 21 C15.93941406 20.00097656 15.87882812 19.00195312 15.81640625 17.97265625 C15.69072266 16.03712891 15.69072266 16.03712891 15.5625 14.0625 C15.48128906 12.77472656 15.40007812 11.48695313 15.31640625 10.16015625 C15.35080812 7.13976043 15.35080812 7.13976043 14 6 C11.54190002 5.7499227 11.54190002 5.7499227 9 6 C6.22957891 8.77042109 6.60203894 10.76533805 6.375 14.625 C6.30023438 15.81351562 6.22546875 17.00203125 6.1484375 18.2265625 C6.09945313 19.14179688 6.05046875 20.05703125 6 21 C4.02 21 2.04 21 0 21 C0 14.07 0 7.14 0 0 Z " fill="#0B0B0B" transform="translate(259,443)"/>
<path d="M0 0 C2.908125 -0.04125 5.81625 -0.0825 8.8125 -0.125 C10.18112183 -0.15231201 10.18112183 -0.15231201 11.57739258 -0.18017578 C12.30079834 -0.1851709 13.0242041 -0.19016602 13.76953125 -0.1953125 C14.50792236 -0.20578613 15.24631348 -0.21625977 16.00708008 -0.22705078 C18 0 18 0 21 2 C22.2062252 5.61867559 22.10816918 8.92506251 22.0625 12.6875 C22.05798828 13.38939453 22.05347656 14.09128906 22.04882812 14.81445312 C22.03706927 16.54300538 22.01913454 18.27151365 22 20 C20.02 20 18.04 20 16 20 C15.93941406 19.07316406 15.87882812 18.14632813 15.81640625 17.19140625 C15.73261719 15.99386719 15.64882813 14.79632813 15.5625 13.5625 C15.48128906 12.36753906 15.40007812 11.17257812 15.31640625 9.94140625 C15.32343886 7.11429756 15.32343886 7.11429756 14 6 C11.54190002 5.7499227 11.54190002 5.7499227 9 6 C6.31907309 8.68092691 6.61329743 10.39167363 6.375 14.125 C6.30023438 15.22070312 6.22546875 16.31640625 6.1484375 17.4453125 C6.09945313 18.28835938 6.05046875 19.13140625 6 20 C4.02 20 2.04 20 0 20 C0 13.4 0 6.8 0 0 Z " fill="#080808" transform="translate(448,443)"/>
<path d="M0 0 C3.76991795 0.70685962 5.40418092 1.74418215 8 4.5625 C9.25610015 8.2522942 9.34352813 9.82636829 7.6875 13.375 C6 15.5625 6 15.5625 4 16.5625 C-3.08571429 17.13392857 -3.08571429 17.13392857 -6.5 15 C-8.61006839 11.57113886 -8.62491523 9.52029649 -8 5.5625 C-5.54999553 2.17572911 -4.13607554 0.77551416 0 0 Z " fill="#1D1D1D" transform="translate(430,474.4375)"/>
<path d="M0 0 C8.02217295 -0.4789357 8.02217295 -0.4789357 12.0625 1.5 C14.41881305 4.54040393 14.69081869 6.3224678 14.40234375 10.09375 C14 12 14 12 12.625 14.5 C8.46285285 16.8783698 4.74014469 16.2494813 0 16 C0 10.72 0 5.44 0 0 Z " fill="#F7F7F7" transform="translate(318,442)"/>
<path d="M0 0 C0.66 0 1.32 0 2 0 C2 1.32 2 2.64 2 4 C2.66 4 3.32 4 4 4 C4 4.66 4 5.32 4 6 C3.34 6 2.68 6 2 6 C2 8.64 2 11.28 2 14 C1.01 14 0.02 14 -1 14 C-1 11.69 -1 9.38 -1 7 C-1.66 7 -2.32 7 -3 7 C-3 9.31 -3 11.62 -3 14 C-7.00200378 15.60080151 -10.04556236 14.29279692 -14 13 C-15.31343284 7.62686567 -15.31343284 7.62686567 -14.0625 5.125 C-10.83515856 3.36463194 -7.5577313 3.81562621 -4 4 C-2.68 4 -1.36 4 0 4 C0 2.68 0 1.36 0 0 Z " fill="#696969" transform="translate(393,477)"/>
<path d="M0 0 C4.4434004 1.1108501 4.59858761 1.39889565 6.875 5 C9.31297555 8.50688542 9.31297555 8.50688542 13.375 10 C14.24125 10 15.1075 10 16 10 C12.8470483 13.37039665 10.94378232 14.85783871 6.22265625 15.203125 C5.17980469 15.21859375 4.13695312 15.2340625 3.0625 15.25 C2.02222656 15.27578125 0.98195313 15.3015625 -0.08984375 15.328125 C-3.31721419 14.96423357 -4.63713641 14.16358594 -7 12 C-6.67 11.34 -6.34 10.68 -6 10 C-4.02 10 -2.04 10 0 10 C0 6.7 0 3.4 0 0 Z " fill="#EFEFEF" transform="translate(480,352)"/>
<path d="M0 0 C2.97454134 0.32157204 4.59335278 0.62139742 6.8125 2.6875 C8.37181231 5.72405555 8.41386429 7.62010833 8 11 C6.875 13.875 6.875 13.875 5 16 C2 16.625 2 16.625 -1 16 C-3.32988436 13.35946439 -3.93127096 11.47128484 -4.4375 8 C-3.9001142 4.31506879 -2.51917486 2.67662329 0 0 Z " fill="#3B3B3B" transform="translate(185,475)"/>
<path d="M0 0 C16.5 0 33 0 50 0 C49.67 0.99 49.34 1.98 49 3 C32.83 3 16.66 3 0 3 C0 2.01 0 1.02 0 0 Z " fill="#EFFAEF" transform="translate(196,197)"/>
<path d="M0 0 C0.02689216 1.47906892 0.04634621 2.95827483 0.0625 4.4375 C0.07410156 5.26121094 0.08570313 6.08492188 0.09765625 6.93359375 C0 9 0 9 -1 10 C-3.1420966 10.15154969 -5.29023462 10.22177745 -7.4375 10.25 C-8.61183594 10.27578125 -9.78617187 10.3015625 -10.99609375 10.328125 C-11.98738281 10.21984375 -12.97867187 10.1115625 -14 10 C-16 7 -16 7 -15.9375 4.4375 C-15 2 -15 2 -13.0625 0.6875 C-8.69760588 -0.29237419 -4.45370104 -0.15566334 0 0 Z " fill="#F8EFEE" transform="translate(343,405)"/>
<path d="M0 0 C0.91026797 3.07215439 1.25288404 5.79680216 1 9 C-1.6855594 11.6855594 -4.37621328 12.06049974 -8 13 C-5.03 13.495 -5.03 13.495 -2 14 C-2 14.33 -2 14.66 -2 15 C-9.32215357 15.36010591 -9.32215357 15.36010591 -12 13.9375 C-13.60318593 10.83132725 -13.42751128 8.42009021 -13 5 C-11.5625 3.0625 -11.5625 3.0625 -9 2 C-5.98178886 1.77142635 -3.01987345 1.82577653 0 2 C0 1.34 0 0.68 0 0 Z " fill="#212121" transform="translate(410,449)"/>
<path d="M0 0 C1.30324219 -0.00386719 1.30324219 -0.00386719 2.6328125 -0.0078125 C4.875 0.125 4.875 0.125 6.875 1.125 C6.875 2.445 6.875 3.765 6.875 5.125 C5.86179687 5.06699219 4.84859375 5.00898438 3.8046875 4.94921875 C-4.51394281 4.24854243 -4.51394281 4.24854243 -11.875 7.3125 C-16.22910701 12.75513377 -17.54176077 16.2427771 -18.125 23.125 C-18.455 23.125 -18.785 23.125 -19.125 23.125 C-19.269375 22.361875 -19.41375 21.59875 -19.5625 20.8125 C-20.0882594 18.04327092 -20.0882594 18.04327092 -21.125 15.125 C-18.7456993 9.04456487 -14.58166646 4.64542998 -9.125 1.125 C-6.04451385 0.14940135 -3.22133884 -0.00961594 0 0 Z " fill="#1B1B1B" transform="translate(484.125,328.875)"/>
<path d="M0 0 C1.98 0 3.96 0 6 0 C6 6.6 6 13.2 6 20 C4.02 20 2.04 20 0 20 C0 13.4 0 6.8 0 0 Z " fill="#050505" transform="translate(287,443)"/>
<path d="M0 0 C2 1 2 1 2.8515625 3.06640625 C3.10679687 3.89011719 3.36203125 4.71382813 3.625 5.5625 C3.88539063 6.38878906 4.14578125 7.21507812 4.4140625 8.06640625 C4.60742188 8.70449219 4.80078125 9.34257812 5 10 C5.66 10 6.32 10 7 10 C7.19335938 9.36191406 7.38671875 8.72382813 7.5859375 8.06640625 C7.84632813 7.24011719 8.10671875 6.41382813 8.375 5.5625 C8.63023437 4.73878906 8.88546875 3.91507812 9.1484375 3.06640625 C10 1 10 1 12 0 C12.50435694 1.9363704 13.00333874 3.87414146 13.5 5.8125 C13.7784375 6.89144531 14.056875 7.97039062 14.34375 9.08203125 C15 12 15 12 15 15 C14.01 14.67 13.02 14.34 12 14 C11.67 12.35 11.34 10.7 11 9 C9.68 10.65 8.36 12.3 7 14 C3.60085025 12.86695008 2.94745549 11.87481525 1 9 C0.34 10.98 -0.32 12.96 -1 15 C-1.66 15 -2.32 15 -3 15 C-2.5547115 9.72684667 -1.91626837 4.98229776 0 0 Z " fill="#282828" transform="translate(444,476)"/>
<path d="M0 0 C0.33 0.99 0.66 1.98 1 3 C0.36191406 2.98839844 -0.27617188 2.97679687 -0.93359375 2.96484375 C-1.75988281 2.95582031 -2.58617187 2.94679688 -3.4375 2.9375 C-4.26121094 2.92589844 -5.08492187 2.91429687 -5.93359375 2.90234375 C-7.99163938 2.76732652 -7.99163938 2.76732652 -9 4 C-9.33340471 6.95804573 -9.33340471 6.95804573 -9 10 C-5.5647952 12.29013653 -4.014669 12.17842973 0 12 C0 11.34 0 10.68 0 10 C-1.32 10 -2.64 10 -4 10 C-4 9.01 -4 8.02 -4 7 C-1.69 7 0.62 7 3 7 C3.36605143 11.51463433 3.36605143 11.51463433 1.765625 13.63671875 C-1.0146054 15.78340107 -3.42936358 15.53612215 -6.8359375 15.4140625 C-9 15 -9 15 -11.5625 12.875 C-13.27714397 9.44571205 -13.78577869 7.77173773 -13 4 C-8.74578663 -0.87678118 -6.48195532 -1.68530838 0 0 Z " fill="#2D2D2D" transform="translate(50,476)"/>
<path d="M0 0 C11.77777778 0 11.77777778 0 16 1 C17 2 17 2 17.09765625 4.06640625 C17.08605469 4.89011719 17.07445312 5.71382813 17.0625 6.5625 C17.05347656 7.38878906 17.04445313 8.21507812 17.03515625 9.06640625 C17.02355469 9.70449219 17.01195312 10.34257812 17 11 C16.01 11 15.02 11 14 11 C13.67 8.36 13.34 5.72 13 3 C12.34 3 11.68 3 11 3 C10.67 5.31 10.34 7.62 10 10 C9.01 10 8.02 10 7 10 C7 7.69 7 5.38 7 3 C5.68 3 4.36 3 3 3 C3 5.64 3 8.28 3 11 C2.01 11 1.02 11 0 11 C0 7.37 0 3.74 0 0 Z " fill="#373737" transform="translate(340,481)"/>
<path d="M0 0 C2.92824652 2.92824652 4.27239967 5.2979993 6 9 C7.65 6.36 9.3 3.72 11 1 C13.62451617 3.62451617 13.5832868 5.4877828 14.125 9.125 C14.29257813 10.22070312 14.46015625 11.31640625 14.6328125 12.4453125 C14.75398438 13.28835938 14.87515625 14.13140625 15 15 C14.34 15 13.68 15 13 15 C12.67 12.69 12.34 10.38 12 8 C11.34 8 10.68 8 10 8 C9.71125 8.78375 9.4225 9.5675 9.125 10.375 C8 13 8 13 6 15 C4.02 11.535 4.02 11.535 2 8 C1.34 10.31 0.68 12.62 0 15 C-0.99 14.67 -1.98 14.34 -3 14 C-2.01 9.38 -1.02 4.76 0 0 Z " fill="#292929" transform="translate(204,476)"/>
<path d="M0 0 C5.97873264 0.90060764 5.97873264 0.90060764 7.08984375 2.01171875 C7.40234375 4.88671875 7.40234375 4.88671875 7.08984375 8.01171875 C5.46484375 9.94921875 5.46484375 9.94921875 3.08984375 11.01171875 C-0.03515625 10.88671875 -0.03515625 10.88671875 -2.91015625 10.01171875 C-4.91015625 7.01171875 -4.91015625 7.01171875 -4.66015625 4.44921875 C-3.7915712 1.62631732 -3.1650905 0.01941773 0 0 Z " fill="#F0F0F0" transform="translate(428.91015625,477.98828125)"/>
<path d="M0 0 C-2.64 0.66 -5.28 1.32 -8 2 C-8.33 15.86 -8.66 29.72 -9 44 C-10.32 43.67 -11.64 43.34 -13 43 C-12.34 43 -11.68 43 -11 43 C-11 29.14 -11 15.28 -11 1 C-4 -1 -4 -1 0 0 Z " fill="#E8CFD0" transform="translate(408,386)"/>
<path d="M0 0 C2.97 0 5.94 0 9 0 C9 0.99 9 1.98 9 3 C7.02 3 5.04 3 3 3 C3 4.32 3 5.64 3 7 C4.98 7 6.96 7 9 7 C9 7.66 9 8.32 9 9 C7.02 9 5.04 9 3 9 C3 10.65 3 12.3 3 14 C4.98 14 6.96 14 9 14 C9 14.99 9 15.98 9 17 C6.03 17 3.06 17 0 17 C0 11.39 0 5.78 0 0 Z " fill="#393939" transform="translate(461,475)"/>
<path d="M0 0 C3 0.25 3 0.25 5 2.25 C5.333728 5.38704316 5.52849028 7.41554166 3.8125 10.125 C1.38241919 11.63332602 -0.19015752 11.61023622 -3 11.25 C-5 9.25 -5 9.25 -5.25 5.75 C-4.93427155 1.32980166 -4.46370491 0.37197541 0 0 Z " fill="#ECECEC" transform="translate(243,447.75)"/>
<path d="M0 0 C0.66 0 1.32 0 2 0 C3.00460531 2.12282669 4.00355602 4.24833021 5 6.375 C5.556875 7.55835938 6.11375 8.74171875 6.6875 9.9609375 C8 13 8 13 8 15 C7.01 15 6.02 15 5 15 C4.67 14.01 4.34 13.02 4 12 C1.08365871 11.7497843 1.08365871 11.7497843 -2 12 C-2.99 13.485 -2.99 13.485 -4 15 C-4.66 15 -5.32 15 -6 15 C-5.27623543 11.50596417 -3.93714794 8.48001095 -2.4375 5.25 C-1.98246094 4.26515625 -1.52742188 3.2803125 -1.05859375 2.265625 C-0.70925781 1.51796875 -0.35992187 0.7703125 0 0 Z " fill="#565656" transform="translate(294,476)"/>
<path d="M0 0 C2.9375 0.75 2.9375 0.75 4.9375 2.75 C4.60778521 6.04714793 4.3148161 7.3726839 1.9375 9.75 C-1.0625 10 -1.0625 10 -4.0625 9.75 C-6.0625 7.75 -6.0625 7.75 -6.375 4.75 C-6.271875 3.76 -6.16875 2.77 -6.0625 1.75 C-3.0625 -0.25 -3.0625 -0.25 0 0 Z " fill="#171717" transform="translate(70.0625,481.25)"/>
<path d="M0 0 C1.1446875 -0.00515625 2.289375 -0.0103125 3.46875 -0.015625 C6.5 0.25 6.5 0.25 9.5 2.25 C8.51 3.735 8.51 3.735 7.5 5.25 C4.63920453 5.4188047 1.97418353 5.43792087 -0.875 5.3125 C-7.50016077 4.8281689 -7.50016077 4.8281689 -13.5 7.25 C-9.30492553 1.75300587 -6.98724579 -0.03147408 0 0 Z " fill="#E7E7E7" transform="translate(482.5,332.75)"/>
<path d="M0 0 C5.56225539 1.34842555 8.73442841 5.56689879 12 10 C13.04976964 13.14930893 13.10131595 15.38814456 13.0625 18.6875 C13.05347656 19.68136719 13.04445313 20.67523438 13.03515625 21.69921875 C13.02355469 22.45847656 13.01195312 23.21773438 13 24 C12.01 24 11.02 24 10 24 C9.99742187 23.29875 9.99484375 22.5975 9.9921875 21.875 C9.69686156 14.62967029 8.18981453 10.15108457 3 5 C2.01 4.34 1.02 3.68 0 3 C0 2.01 0 1.02 0 0 Z " fill="#151515" transform="translate(491,331)"/>
<path d="M0 0 C0.928125 0.20625 1.85625 0.4125 2.8125 0.625 C3.1425 2.275 3.4725 3.925 3.8125 5.625 C1.5025 5.955 -0.8075 6.285 -3.1875 6.625 C-0.8775 6.625 1.4325 6.625 3.8125 6.625 C3.4825 7.615 3.1525 8.605 2.8125 9.625 C0.1725 9.625 -2.4675 9.625 -5.1875 9.625 C-6.58181504 6.83636993 -6.44410094 4.70421132 -6.1875 1.625 C-3.1875 -0.375 -3.1875 -0.375 0 0 Z " fill="#272727" transform="translate(266.1875,481.375)"/>
<path d="M0 0 C0.928125 0.20625 1.85625 0.4125 2.8125 0.625 C3.1425 2.275 3.4725 3.925 3.8125 5.625 C1.5025 5.955 -0.8075 6.285 -3.1875 6.625 C-0.8775 6.625 1.4325 6.625 3.8125 6.625 C3.4825 7.615 3.1525 8.605 2.8125 9.625 C0.1725 9.625 -2.4675 9.625 -5.1875 9.625 C-6.58181504 6.83636993 -6.44410094 4.70421132 -6.1875 1.625 C-3.1875 -0.375 -3.1875 -0.375 0 0 Z " fill="#272727" transform="translate(93.1875,481.375)"/>
<path d="M0 0 C0.33 0 0.66 0 1 0 C1.08636719 0.556875 1.17273438 1.11375 1.26171875 1.6875 C2.33655043 7.52511792 3.94379951 12.54119897 8 17 C10.61886428 18.72485496 13.0719348 19.80892263 16 21 C12.296875 23.0546875 12.296875 23.0546875 9.625 22.5625 C5.15408263 19.90123966 2.16417599 16.06376653 -0.375 11.5625 C-1.2600516 7.93378845 -1.18673029 4.73460579 -1 1 C-0.67 0.67 -0.34 0.34 0 0 Z " fill="#121212" transform="translate(464,346)"/>
<path d="M0 0 C2.625 0.25 2.625 0.25 4.5 1.4375 C5.625 3.25 5.625 3.25 5.5625 5.625 C4.44701191 8.74836666 2.8119812 10.78082768 0.625 13.25 C2.275 13.58 3.925 13.91 5.625 14.25 C5.625 14.91 5.625 15.57 5.625 16.25 C2.325 16.25 -0.975 16.25 -4.375 16.25 C-0.625 10.5 -0.625 10.5 1.625 8.25 C1.625 6.93 1.625 5.61 1.625 4.25 C-0.355 4.58 -2.335 4.91 -4.375 5.25 C-3.26717391 0.34391304 -3.26717391 0.34391304 0 0 Z " fill="#262626" transform="translate(172.375,474.75)"/>
<path d="M0 0 C6.8359375 -0.1953125 6.8359375 -0.1953125 9 0 C11 2 11 2 11.1953125 4.1640625 C11.17210937 4.97617187 11.14890625 5.78828125 11.125 6.625 C11.10695312 7.44226563 11.08890625 8.25953125 11.0703125 9.1015625 C11.03550781 10.04128906 11.03550781 10.04128906 11 11 C10.01 11 9.02 11 8 11 C8 8.36 8 5.72 8 3 C6.35 3 4.7 3 3 3 C3 5.31 3 7.62 3 10 C2.01 10 1.02 10 0 10 C0 6.7 0 3.4 0 0 Z " fill="#343434" transform="translate(148,481)"/>
<path d="M0 0 C-1.175625 0.0928125 -1.175625 0.0928125 -2.375 0.1875 C-3.24125 0.455625 -4.1075 0.72375 -5 1 C-5.68132451 2.66072849 -6.34742127 4.327767 -7 6 C-9.625 7.3125 -9.625 7.3125 -12 8 C-11.835 8.928125 -11.67 9.85625 -11.5 10.8125 C-10.76299718 15.85733621 -10.91723185 20.91435711 -11 26 C-14.76663482 21.83477949 -14.44132783 18.30851221 -14.27734375 12.91015625 C-13.84570035 8.38094031 -12.73298736 5.60740857 -9.3828125 2.5 C-4.29331587 -1.51917331 -4.29331587 -1.51917331 0 0 Z " fill="#9E2F33" transform="translate(321,395)"/>
<path d="M0 0 C0.33 1.32 0.66 2.64 1 4 C-1.64 4 -4.28 4 -7 4 C-6.67 4.66 -6.34 5.32 -6 6 C-3.69 6 -1.38 6 1 6 C0.67 6.99 0.34 7.98 0 9 C-3.375 9.125 -3.375 9.125 -7 9 C-9 7 -9 7 -9.3125 4.5625 C-9 2 -9 2 -7.875 0.125 C-5.07848948 -1.55290631 -3.06309468 -0.74875648 0 0 Z " fill="#090909" transform="translate(368,482)"/>
<path d="M0 0 C6.0546875 -0.1953125 6.0546875 -0.1953125 8 0 C10 2 10 2 10.1953125 3.9453125 C10.13020833 5.96354167 10.06510417 7.98177083 10 10 C9.34 10 8.68 10 8 10 C8 7.69 8 5.38 8 3 C6.35 3 4.7 3 3 3 C3 5.64 3 8.28 3 11 C2.01 11 1.02 11 0 11 C0 7.37 0 3.74 0 0 Z " fill="#323232" transform="translate(227,481)"/>
<path d="M0 0 C0.66 0 1.32 0 2 0 C2 1.65 2 3.3 2 5 C4.97 5 7.94 5 11 5 C11 3.35 11 1.7 11 0 C11.33 0 11.66 0 12 0 C12 4.95 12 9.9 12 15 C11.67 15 11.34 15 11 15 C11 12.36 11 9.72 11 7 C8.03 7 5.06 7 2 7 C2 9.64 2 12.28 2 15 C1.34 15 0.68 15 0 15 C0 10.05 0 5.1 0 0 Z " fill="#090909" transform="translate(406,476)"/>
<path d="M0 0 C3.125 0.375 3.125 0.375 6 1 C6.33 2.32 6.66 3.64 7 5 C4.36 5 1.72 5 -1 5 C-0.67 5.66 -0.34 6.32 0 7 C3.02934491 7.65772428 3.02934491 7.65772428 6 8 C6 8.66 6 9.32 6 10 C2.625 10.1875 2.625 10.1875 -1 10 C-3 7 -3 7 -2.75 4.4375 C-2 2 -2 2 0 0 Z " fill="#131313" transform="translate(116,481)"/>
<path d="M0 0 C1.67542976 0.28604898 3.34385343 0.61781233 5 1 C5 3.97 5 6.94 5 10 C3.34385343 10.38218767 1.67542976 10.71395102 0 11 C-1 10 -1 10 -1.1328125 7.96875 C-1.13023437 7.1540625 -1.12765625 6.339375 -1.125 5.5 C-1.12757813 4.6853125 -1.13015625 3.870625 -1.1328125 3.03125 C-1 1 -1 1 0 0 Z " fill="#ECECEC" transform="translate(185,478)"/>
<path d="M0 0 C3 1 3 1 5 4 C5.66 2.68 6.32 1.36 7 0 C7.99 0.33 8.98 0.66 10 1 C7.69 5.62 5.38 10.24 3 15 C2.34 15 1.68 15 1 15 C1.20625 13.9275 1.4125 12.855 1.625 11.75 C2.00605741 7.93942595 1.82767059 7.11779101 0 4 C0 2.68 0 1.36 0 0 Z " fill="#202020" transform="translate(316,481)"/>
<path d="M0 0 C2.97 0 5.94 0 9 0 C9.33 1.65 9.66 3.3 10 5 C6.78548731 6.60725635 3.56387464 6.05748185 0 6 C0 4.02 0 2.04 0 0 Z " fill="#D7D7D7" transform="translate(479,342)"/>
<path d="M0 0 C0.99 0 1.98 0 3 0 C3 2.64 3 5.28 3 8 C4.32 7.67 5.64 7.34 7 7 C7.33 4.69 7.66 2.38 8 0 C8.66 0 9.32 0 10 0 C10.125 7.75 10.125 7.75 9 10 C5.625 10.125 5.625 10.125 2 10 C0 8 0 8 -0.1953125 6.0546875 C-0.13020833 4.03645833 -0.06510417 2.01822917 0 0 Z " fill="#151515" transform="translate(240,481)"/>
<path d="M0 0 C1.30324219 -0.00386719 1.30324219 -0.00386719 2.6328125 -0.0078125 C4.875 0.125 4.875 0.125 6.875 1.125 C6.875 2.445 6.875 3.765 6.875 5.125 C-0.055 4.63 -0.055 4.63 -7.125 4.125 C-7.125 3.465 -7.125 2.805 -7.125 2.125 C-7.785 1.795 -8.445 1.465 -9.125 1.125 C-6.02102241 0.21546238 -3.22989778 -0.00964149 0 0 Z " fill="#343434" transform="translate(484.125,328.875)"/>
<path d="M0 0 C6.0546875 -0.1953125 6.0546875 -0.1953125 8 0 C10 2 10 2 10.1953125 3.9453125 C10.13020833 5.96354167 10.06510417 7.98177083 10 10 C9.34 10 8.68 10 8 10 C8 7.69 8 5.38 8 3 C6.35 3.33 4.7 3.66 3 4 C2.67 5.98 2.34 7.96 2 10 C1.34 10 0.68 10 0 10 C0 6.7 0 3.4 0 0 Z " fill="#232323" transform="translate(304,481)"/>
<path d="M0 0 C0.79921875 0.00644531 1.5984375 0.01289063 2.421875 0.01953125 C3.246875 0.03628906 4.071875 0.05304688 4.921875 0.0703125 C5.76234375 0.07933594 6.6028125 0.08835937 7.46875 0.09765625 C9.53658104 0.12115433 11.60426495 0.15702342 13.671875 0.1953125 C13.671875 0.5253125 13.671875 0.8553125 13.671875 1.1953125 C12.02638672 1.28619141 12.02638672 1.28619141 10.34765625 1.37890625 C8.89321846 1.46335748 7.43879195 1.54800316 5.984375 1.6328125 C5.26314453 1.67212891 4.54191406 1.71144531 3.79882812 1.75195312 C0.00480218 1.97716928 -3.61463992 2.32370555 -7.328125 3.1953125 C-7.37710937 3.79859375 -7.42609375 4.401875 -7.4765625 5.0234375 C-7.55132812 5.82265625 -7.62609375 6.621875 -7.703125 7.4453125 C-7.77273438 8.23421875 -7.84234375 9.023125 -7.9140625 9.8359375 C-8.35353508 12.34010202 -8.94240385 14.06488406 -10.328125 16.1953125 C-11.318125 16.5253125 -12.308125 16.8553125 -13.328125 17.1953125 C-9.09816597 2.67245317 -9.09816597 2.67245317 -6.53222656 1.08251953 C-4.16039691 0.12779767 -2.54324114 -0.03633202 0 0 Z " fill="#4D9EB8" transform="translate(268.328125,341.8046875)"/>
<path d="M0 0 C0 0.66 0 1.32 0 2 C-1.32 1.67 -2.64 1.34 -4 1 C-2.74458443 3.51083114 -1.49936512 3.87125446 1 5 C0.67 6.32 0.34 7.64 0 9 C-1.98 9 -3.96 9 -6 9 C-6.33 8.01 -6.66 7.02 -7 6 C-4.525 6.495 -4.525 6.495 -2 7 C-2 6.34 -2 5.68 -2 5 C-3.65 4.67 -5.3 4.34 -7 4 C-7 2.68 -7 1.36 -7 0 C-4.3333581 -1.33332095 -2.83319697 -0.67102033 0 0 Z " fill="#2D2D2D" transform="translate(279,482)"/>
<path d="M0 0 C0.99 0 1.98 0 3 0 C3 1.32 3 2.64 3 4 C3.66 4 4.32 4 5 4 C5 4.99 5 5.98 5 7 C4.34 7 3.68 7 3 7 C3 9.31 3 11.62 3 14 C2.01 14 1.02 14 0 14 C-0.19627391 12.41773035 -0.38165538 10.83410729 -0.5625 9.25 C-0.66691406 8.36828125 -0.77132813 7.4865625 -0.87890625 6.578125 C-0.99456676 4.11567549 -0.73638695 2.33461936 0 0 Z " fill="#333333" transform="translate(328,477)"/>
<path d="M0 0 C3.67176009 -0.34155908 5.58028931 -0.24249951 8.8125 1.625 C11.48997956 4.5319778 12 6.06440609 12 10 C10.5625 12.875 10.5625 12.875 9 15 C7.68 14.34 6.36 13.68 5 13 C5.99 12.34 6.98 11.68 8 11 C8.2502157 7.91634129 8.2502157 7.91634129 8 5 C7.01 4.67 6.02 4.34 5 4 C5 3.01 5 2.02 5 1 C3.35 1 1.7 1 0 1 C0 0.67 0 0.34 0 0 Z " fill="#424242" transform="translate(427,475)"/>
<path d="M0 0 C1 1 1 1 1.09765625 3.06640625 C1.08605469 3.89011719 1.07445312 4.71382813 1.0625 5.5625 C1.05347656 6.38878906 1.04445313 7.21507812 1.03515625 8.06640625 C1.02355469 8.70449219 1.01195312 9.34257812 1 10 C0.01 10 -0.98 10 -2 10 C-2.33 7.36 -2.66 4.72 -3 2 C-3.66 2 -4.32 2 -5 2 C-5.33 4.31 -5.66 6.62 -6 9 C-6.33 9 -6.66 9 -7 9 C-7.33 6.03 -7.66 3.06 -8 0 C-4.69676014 -1.10107995 -3.29495231 -0.86709271 0 0 Z " fill="#404040" transform="translate(356,482)"/>
<path d="M0 0 C-1.46456693 6.59055118 -1.46456693 6.59055118 -3.59375 8.21875 C-6.9736734 9.31612773 -10.24020158 9.21125214 -13.75 9.125 C-14.44738281 9.11597656 -15.14476562 9.10695313 -15.86328125 9.09765625 C-17.57566958 9.07419888 -19.28788004 9.03833104 -21 9 C-21 8.67 -21 8.34 -21 8 C-16.05 7.67 -11.1 7.34 -6 7 C-5.67 6.01 -5.34 5.02 -5 4 C-4.34 4.33 -3.68 4.66 -3 5 C-3 4.01 -3 3.02 -3 2 C-3.99 1.67 -4.98 1.34 -6 1 C-3.92446352 0.4465236 -2.15634036 0 0 0 Z " fill="#D86245" transform="translate(260,402)"/>
<path d="M0 0 C0.66 0.33 1.32 0.66 2 1 C1.24193832 3.4629514 0.46937097 5.91961151 -0.3125 8.375 C-0.52583984 9.07367188 -0.73917969 9.77234375 -0.95898438 10.4921875 C-2.66015625 15.7734375 -2.66015625 15.7734375 -6 18 C-8.6875 17.625 -8.6875 17.625 -11 17 C-11 16.01 -11 15.02 -11 14 C-8.525 14.99 -8.525 14.99 -6 16 C-5.67 14.68 -5.34 13.36 -5 12 C-4.34 12 -3.68 12 -3 12 C-3 9.69 -3 7.38 -3 5 C-2.34 5 -1.68 5 -1 5 C-0.67 3.35 -0.34 1.7 0 0 Z " fill="#6C8590" transform="translate(264,385)"/>
<path d="M0 0 C0.94875 0.04125 1.8975 0.0825 2.875 0.125 C2.875 1.115 2.875 2.105 2.875 3.125 C0.895 3.125 -1.085 3.125 -3.125 3.125 C-2.795 4.445 -2.465 5.765 -2.125 7.125 C-0.475 7.125 1.175 7.125 2.875 7.125 C2.875 8.115 2.875 9.105 2.875 10.125 C0 10.25 0 10.25 -3.125 10.125 C-5.125 8.125 -5.125 8.125 -5.375 5.125 C-5.02345647 0.90647769 -4.22997422 0.16919897 0 0 Z " fill="#121212" transform="translate(82.125,480.875)"/>
<path d="M0 0 C2.625 0.375 2.625 0.375 5 1 C5.625 2.875 5.625 2.875 6 5 C4 7 4 7 1.375 7.125 C0.59125 7.08375 -0.1925 7.0425 -1 7 C-1.625 4.625 -1.625 4.625 -2 2 C-1.34 1.34 -0.68 0.68 0 0 Z " fill="#171718" transform="translate(288,433)"/>
<path d="M0 0 C1.65 0.33 3.3 0.66 5 1 C3.68 1.33 2.36 1.66 1 2 C2.25541557 4.51083114 3.50063488 4.87125446 6 6 C5.67 7.32 5.34 8.64 5 10 C3.02 10 1.04 10 -1 10 C-1.33 9.01 -1.66 8.02 -2 7 C0.475 7.495 0.475 7.495 3 8 C3 7.34 3 6.68 3 6 C1.68 5.67 0.36 5.34 -1 5 C-0.67 3.35 -0.34 1.7 0 0 Z " fill="#242424" transform="translate(127,481)"/>
<path d="M0 0 C-0.99 0.33 -1.98 0.66 -3 1 C-3.33 1.99 -3.66 2.98 -4 4 C-5.45823212 4.0270043 -6.91660675 4.04639787 -8.375 4.0625 C-9.18710937 4.07410156 -9.99921875 4.08570313 -10.8359375 4.09765625 C-13 4 -13 4 -15 3 C-15 2.34 -15 1.68 -15 1 C-12.87630763 0.63807496 -10.7509887 0.28568253 -8.625 -0.0625 C-6.84996094 -0.35833984 -6.84996094 -0.35833984 -5.0390625 -0.66015625 C-2 -1 -2 -1 0 0 Z " fill="#353535" transform="translate(491,367)"/>
<path d="M0 0 C1.45880109 0.14107747 2.91703551 0.28802415 4.375 0.4375 C5.59316406 0.55931641 5.59316406 0.55931641 6.8359375 0.68359375 C9 1 9 1 11 2 C11.625 4.5625 11.625 4.5625 12 7 C11.01 7 10.02 7 9 7 C8.67 6.01 8.34 5.02 8 4 C5.08365871 3.7497843 5.08365871 3.7497843 2 4 C1.01 5.485 1.01 5.485 0 7 C-0.66 7 -1.32 7 -2 7 C-1.42415568 4.61435923 -0.77772405 2.33317216 0 0 Z " fill="#1E1E1E" transform="translate(290,484)"/>
<path d="M0 0 C3.10551666 3.10551666 3.81323934 4.89198233 5 9 C2.36 9 -0.28 9 -3 9 C-2.01 6.03 -1.02 3.06 0 0 Z " fill="#DCDCDC" transform="translate(212,444)"/>
<path d="M0 0 C0.66 0.66 1.32 1.32 2 2 C1.625 5.625 1.625 5.625 1 9 C0.34 8.34 -0.32 7.68 -1 7 C-3.57061311 6.35232207 -3.57061311 6.35232207 -6 6 C-6 4.68 -6 3.36 -6 2 C-4.02 2 -2.04 2 0 2 C0 1.34 0 0.68 0 0 Z " fill="#E1E1E1" transform="translate(85,482)"/>
<path d="M0 0 C0.99 0 1.98 0 3 0 C3.33 1.98 3.66 3.96 4 6 C3.34 6 2.68 6 2 6 C2 8.64 2 11.28 2 14 C1.34 14 0.68 14 0 14 C0 11.36 0 8.72 0 6 C-0.66 6 -1.32 6 -2 6 C-2 5.34 -2 4.68 -2 4 C-1.34 4 -0.68 4 0 4 C0 2.68 0 1.36 0 0 Z " fill="#212121" transform="translate(254,477)"/>
<path d="M0 0 C0 0.33 0 0.66 0 1 C-2.64 1.33 -5.28 1.66 -8 2 C-8.33 2.99 -8.66 3.98 -9 5 C-7.02 5 -5.04 5 -3 5 C-3 5.33 -3 5.66 -3 6 C-7.455 6.495 -7.455 6.495 -12 7 C-12.66 5.68 -13.32 4.36 -14 3 C-9.43672206 -0.53286034 -5.50366792 -0.32374517 0 0 Z " fill="#484848" transform="translate(411,442)"/>
<path d="M0 0 C0.66 0 1.32 0 2 0 C2 1.32 2 2.64 2 4 C2.66 4 3.32 4 4 4 C4 4.66 4 5.32 4 6 C3.34 6 2.68 6 2 6 C2 8.64 2 11.28 2 14 C1.34 14 0.68 14 0 14 C0 11.36 0 8.72 0 6 C-0.66 6 -1.32 6 -2 6 C-2 5.34 -2 4.68 -2 4 C-1.34 4 -0.68 4 0 4 C0 2.68 0 1.36 0 0 Z " fill="#0C0C0C" transform="translate(393,477)"/>
<path d="M0 0 C2.62451617 2.62451617 2.5832868 4.4877828 3.125 8.125 C3.29257813 9.22070312 3.46015625 10.31640625 3.6328125 11.4453125 C3.75398437 12.28835938 3.87515625 13.13140625 4 14 C3.34 14 2.68 14 2 14 C1.67 11.69 1.34 9.38 1 7 C0.01 7 -0.98 7 -2 7 C-1.125 1.125 -1.125 1.125 0 0 Z " fill="#1A1A1A" transform="translate(215,477)"/>
<path d="M0 0 C4 1 4 1 7 3 C5.68 3 4.36 3 3 3 C3 5.31 3 7.62 3 10 C2.01 10 1.02 10 0 10 C0 6.7 0 3.4 0 0 Z " fill="#474747" transform="translate(148,481)"/>
<path d="M0 0 C0.33 0.99 0.66 1.98 1 3 C0.38511719 2.96519531 -0.22976562 2.93039062 -0.86328125 2.89453125 C-2.07564453 2.85392578 -2.07564453 2.85392578 -3.3125 2.8125 C-4.11300781 2.77769531 -4.91351563 2.74289062 -5.73828125 2.70703125 C-8.47851584 3.06198392 -9.29171079 3.89366282 -11 6 C-10.6875 3.625 -10.6875 3.625 -10 1 C-6.1496895 -1.56687367 -4.41430237 -0.83288724 0 0 Z " fill="#272727" transform="translate(50,476)"/>
<path d="M0 0 C-0.33 0.66 -0.66 1.32 -1 2 C-3.80078125 2.37890625 -3.80078125 2.37890625 -7.3125 2.5625 C-11.82942665 2.75795651 -11.82942665 2.75795651 -16.23046875 3.65234375 C-18 4 -18 4 -21 2 C-13.90294338 0.65504172 -7.2274605 -0.24091535 0 0 Z " fill="#9B3438" transform="translate(343,391)"/>
<path d="M0 0 C-1.175625 0.0928125 -1.175625 0.0928125 -2.375 0.1875 C-3.24125 0.455625 -4.1075 0.72375 -5 1 C-5.4640625 2.175625 -5.4640625 2.175625 -5.9375 3.375 C-7 6 -7 6 -10.125 7.8125 C-11.07375 8.204375 -12.0225 8.59625 -13 9 C-11.81817091 4.40399799 -9.5133843 2.51425189 -5.8515625 -0.1796875 C-3.50952707 -1.21729813 -2.36546493 -0.84406458 0 0 Z " fill="#A53940" transform="translate(321,395)"/>
<path d="M0 0 C0.8916584 2.95927208 0.96348511 4.19718043 0.375 7.375 C-0.06956462 11.67245799 0.97800574 13.27953056 3 17 C3.1875 19.875 3.1875 19.875 3 22 C-0.44879681 17.75232936 -2.24665191 13.42734643 -3 8 C-2.39715184 4.95145076 -1.40674754 2.81349509 0 0 Z " fill="#6993A6" transform="translate(249,377)"/>
<path d="M0 0 C0.33 0.99 0.66 1.98 1 3 C2.65 3.33 4.3 3.66 6 4 C6 4.66 6 5.32 6 6 C4.35 5.67 2.7 5.34 1 5 C0.67 5.66 0.34 6.32 0 7 C-0.556875 6.855625 -1.11375 6.71125 -1.6875 6.5625 C-4.11384195 5.97230872 -6.54906345 5.476571 -9 5 C-9 4.67 -9 4.34 -9 4 C-6.36 4 -3.72 4 -1 4 C-0.67 2.68 -0.34 1.36 0 0 Z " fill="#DFDFDF" transform="translate(271,483)"/>
<path d="M0 0 C0.99 0 1.98 0 3 0 C3 3.63 3 7.26 3 11 C2.01 11 1.02 11 0 11 C0 7.37 0 3.74 0 0 Z " fill="#3B3B3B" transform="translate(108,481)"/>
<path d="M0 0 C0.66 0 1.32 0 2 0 C3.85776765 3.13498292 4.20140476 5.37471432 4 9 C4.66 9 5.32 9 6 9 C6.33 11.31 6.66 13.62 7 16 C6.34 16.33 5.68 16.66 5 17 C4.16301614 14.54285453 3.33027576 12.08441143 2.5 9.625 C2.26152344 8.92632812 2.02304688 8.22765625 1.77734375 7.5078125 C0 2.2265625 0 2.2265625 0 0 Z " fill="#D85835" transform="translate(229,389)"/>
<path d="M0 0 C0.33 0 0.66 0 1 0 C1 3.3 1 6.6 1 10 C0.34 10 -0.32 10 -1 10 C-1.99 12.97 -2.98 15.94 -4 19 C-5.39035371 14.82893888 -3.90230806 11.81793141 -2.5625 7.8125 C-2.31951172 7.06291016 -2.07652344 6.31332031 -1.82617188 5.54101562 C-1.22534944 3.69142499 -0.61370322 1.84535673 0 0 Z " fill="#E7D9D1" transform="translate(264,388)"/>
<path d="M0 0 C2.70894767 -0.08144943 5.41541263 -0.14070614 8.125 -0.1875 C8.88554687 -0.21263672 9.64609375 -0.23777344 10.4296875 -0.26367188 C15.4024261 -0.32797453 18.63616482 0.34405558 23 3 C21 4 21 4 18.25 3.125 C12.3736942 1.27064337 6.11052672 1.32205273 0 1 C0 0.67 0 0.34 0 0 Z " fill="#D8694C" transform="translate(208,342)"/>
<path d="M0 0 C0.33 0 0.66 0 1 0 C1.25 6.625 1.25 6.625 -1 10 C-4.125 10.1875 -4.125 10.1875 -7 10 C-7.66 8.68 -8.32 7.36 -9 6 C-8.34 5.67 -7.68 5.34 -7 5 C-6.67 5.66 -6.34 6.32 -6 7 C-4.35 7 -2.7 7 -1 7 C-0.67 4.69 -0.34 2.38 0 0 Z " fill="#131313" transform="translate(191,481)"/>
<path d="M0 0 C1.22589844 0.01353516 1.22589844 0.01353516 2.4765625 0.02734375 C3.41628906 0.04474609 3.41628906 0.04474609 4.375 0.0625 C4.375 1.0525 4.375 2.0425 4.375 3.0625 C1.075 3.3925 -2.225 3.7225 -5.625 4.0625 C-5.955 3.0725 -6.285 2.0825 -6.625 1.0625 C-4.21954362 -0.14022819 -2.67503047 -0.03821472 0 0 Z " fill="#ECECEC" transform="translate(430.625,447.9375)"/>
<path d="M0 0 C-1.4089065 3.52226624 -2.58503061 4.48223583 -6 6 C-7.010625 6.70125 -8.02125 7.4025 -9.0625 8.125 C-12 10 -12 10 -15 10 C-3.95890411 0 -3.95890411 0 0 0 Z " fill="#3F426B" transform="translate(54,345)"/>
<path d="M0 0 C2 3 2 3 3 5.5625 C3.86842753 8.12563162 3.86842753 8.12563162 6 10 C4.68 10.33 3.36 10.66 2 11 C-0.31309135 8.49415104 -0.97826344 7.27714111 -1.25 3.8125 C-1 1 -1 1 0 0 Z " fill="#3E3E3E" transform="translate(38,479)"/>
<path d="M0 0 C2.31 0 4.62 0 7 0 C6.67 1.32 6.34 2.64 6 4 C3.69 4 1.38 4 -1 4 C-0.67 2.68 -0.34 1.36 0 0 Z " fill="#D9D9D9" transform="translate(429,455)"/>
<path d="M0 0 C2.31 0 4.62 0 7 0 C6.67 1.32 6.34 2.64 6 4 C3.69 4 1.38 4 -1 4 C-0.67 2.68 -0.34 1.36 0 0 Z " fill="#DADADA" transform="translate(404,455)"/>
<path d="M0 0 C0.78117188 0.47566406 0.78117188 0.47566406 1.578125 0.9609375 C4.67408709 2.28920511 7.39404121 2.42364247 10.75 2.625 C12.50570312 2.73714844 12.50570312 2.73714844 14.296875 2.8515625 C15.63492188 2.92503906 15.63492188 2.92503906 17 3 C17 3.33 17 3.66 17 4 C14.75013201 4.16843931 12.50009983 4.33468654 10.25 4.5 C8.99703125 4.5928125 7.7440625 4.685625 6.453125 4.78125 C3.97265229 4.93838402 1.48544483 5 -1 5 C-0.67 3.35 -0.34 1.7 0 0 Z " fill="#F6E5D9" transform="translate(235,408)"/>
<path d="M0 0 C0.33 0 0.66 0 1 0 C1 3.3 1 6.6 1 10 C-1.31 10 -3.62 10 -6 10 C-6 9.34 -6 8.68 -6 8 C-4.68 7.67 -3.36 7.34 -2 7 C-1.34 4.69 -0.68 2.38 0 0 Z " fill="#161616" transform="translate(387,481)"/>
<path d="M0 0 C0 0.99 0 1.98 0 3 C-3.3 3.33 -6.6 3.66 -10 4 C-10 3.01 -10 2.02 -10 1 C-6.78548731 -0.60725635 -3.56387464 -0.05748185 0 0 Z " fill="#F0F0F0" transform="translate(410,448)"/>
<path d="M0 0 C1.98 0 3.96 0 6 0 C6 0.66 6 1.32 6 2 C5.01 2.33 4.02 2.66 3 3 C2.67 5.31 2.34 7.62 2 10 C1.34 10 0.68 10 0 10 C0 6.7 0 3.4 0 0 Z " fill="#161616" transform="translate(56,481)"/>
<path d="M0 0 C1.98 0 3.96 0 6 0 C5.67 1.65 5.34 3.3 5 5 C3.35 4.67 1.7 4.34 0 4 C0 2.68 0 1.36 0 0 Z " fill="#E8E8E8" transform="translate(66,484)"/>
<path d="M0 0 C1.98 0 3.96 0 6 0 C6 0.66 6 1.32 6 2 C5.01 2.33 4.02 2.66 3 3 C2.67 5.31 2.34 7.62 2 10 C1.34 10 0.68 10 0 10 C0 6.7 0 3.4 0 0 Z " fill="#131313" transform="translate(100,481)"/>
<path d="M0 0 C0.99 0 1.98 0 3 0 C3.33 2.97 3.66 5.94 4 9 C2.68 8.67 1.36 8.34 0 8 C0 5.36 0 2.72 0 0 Z " fill="#2E2E2E" transform="translate(240,481)"/>
<path d="M0 0 C2.00720923 0.28674418 4.0085944 0.61866701 6 1 C6 1.99 6 2.98 6 4 C3.69 4 1.38 4 -1 4 C-1 1 -1 1 0 0 Z " fill="#505050" transform="translate(116,481)"/>
<path d="M0 0 C-0.66 1.32 -1.32 2.64 -2 4 C-4.97 4 -7.94 4 -11 4 C-11.33 3.34 -11.66 2.68 -12 2 C-7.8803623 0.70756464 -4.33168317 -0.26252625 0 0 Z " fill="#070507" transform="translate(329,437)"/>
<path d="M0 0 C4.875 2.875 4.875 2.875 6 4 C6.04063832 5.66617115 6.042721 7.33388095 6 9 C5.01 9.33 4.02 9.66 3 10 C3 7.69 3 5.38 3 3 C1.68 2.67 0.36 2.34 -1 2 C-0.67 1.34 -0.34 0.68 0 0 Z " fill="#323561" transform="translate(105,377)"/>
<path d="M0 0 C0.99 0.33 1.98 0.66 3 1 C1.71937515 2.7074998 0.38232443 4.37373596 -1 6 C-1.66 6 -2.32 6 -3 6 C-3 8.64 -3 11.28 -3 14 C-3.33 14 -3.66 14 -4 14 C-4.63019694 4.82713348 -4.63019694 4.82713348 -2 1.375 C-1.34 0.92125 -0.68 0.4675 0 0 Z " fill="#616485" transform="translate(73,377)"/>
<path d="M0 0 C2.97 0.495 2.97 0.495 6 1 C6 1.99 6 2.98 6 4 C3.69 4 1.38 4 -1 4 C-0.67 2.68 -0.34 1.36 0 0 Z " fill="#535353" transform="translate(263,481)"/>
<path d="M0 0 C1.72274487 2.58411731 2.68895522 4.54902656 3.6875 7.4375 C3.95949219 8.19933594 4.23148438 8.96117187 4.51171875 9.74609375 C5.04729142 12.21829721 4.80445309 13.62983284 4 16 C3.01 13.69 2.02 11.38 1 9 C0.67 9 0.34 9 0 9 C0 6.03 0 3.06 0 0 Z " fill="#F6C9C0" transform="translate(223,372)"/>
<path d="M0 0 C3.50946994 0.30081171 4.97788231 0.9819037 7.75 3.25 C10.0180963 6.02211769 10.69918829 7.49053006 11 11 C10.29875 10.278125 9.5975 9.55625 8.875 8.8125 C6.9024876 6.8286838 4.85610734 5.01682261 2.6875 3.25 C1.800625 2.5075 0.91375 1.765 0 1 C0 0.67 0 0.34 0 0 Z " fill="#E1472A" transform="translate(209,349)"/>
<path d="M0 0 C2.64 0 5.28 0 8 0 C8.33 0.99 8.66 1.98 9 3 C5.79937313 4.60031344 3.27728194 3.03173691 0 2 C0 1.34 0 0.68 0 0 Z " fill="#8E8E8E" transform="translate(115,486)"/>
<path d="M0 0 C2.64 0 5.28 0 8 0 C8 0.66 8 1.32 8 2 C6.02 2 4.04 2 2 2 C2 3.32 2 4.64 2 6 C1.34 6 0.68 6 0 6 C0 4.02 0 2.04 0 0 Z " fill="#0F0F0F" transform="translate(462,476)"/>
<path d="M0 0 C-0.33 0.99 -0.66 1.98 -1 3 C-7.625 4 -7.625 4 -11 4 C-7.26280719 0.48264206 -5.13496308 -0.47767098 0 0 Z " fill="#1E4173" transform="translate(290,349)"/>
<path d="M0 0 C2.3129482 2.3129482 2.49580975 3.47904875 3.125 6.625 C3.29257812 7.44226563 3.46015625 8.25953125 3.6328125 9.1015625 C3.81457031 10.04128906 3.81457031 10.04128906 4 11 C3.01 10.67 2.02 10.34 1 10 C0.234375 7.96875 0.234375 7.96875 -0.25 5.5 C-0.42015625 4.6853125 -0.5903125 3.870625 -0.765625 3.03125 C-0.84296875 2.3609375 -0.9203125 1.690625 -1 1 C-0.67 0.67 -0.34 0.34 0 0 Z " fill="#1E1E1E" transform="translate(455,480)"/>
<path d="M0 0 C0.928125 0.165 1.85625 0.33 2.8125 0.5 C5.95621353 1.07748388 5.95621353 1.07748388 9 1 C8.67 1.99 8.34 2.98 8 4 C5.36 4 2.72 4 0 4 C0 2.68 0 1.36 0 0 Z " fill="#1E1E1E" transform="translate(261,487)"/>
<path d="M0 0 C0.33 0.99 0.66 1.98 1 3 C-1.57213134 4.61949011 -2.67669159 5.04408751 -5.75 4.625 C-6.4925 4.41875 -7.235 4.2125 -8 4 C-8 3.34 -8 2.68 -8 2 C-5.36 2 -2.72 2 0 2 C0 1.34 0 0.68 0 0 Z " fill="#A3A3A3" transform="translate(369,484)"/>
<path d="M0 0 C1.65 0 3.3 0 5 0 C4.67 1.65 4.34 3.3 4 5 C2.68 4.67 1.36 4.34 0 4 C0 2.68 0 1.36 0 0 Z " fill="#F1F1F1" transform="translate(381,484)"/>
<path d="M0 0 C2.97 0.495 2.97 0.495 6 1 C5.67 1.99 5.34 2.98 5 4 C3.02 4 1.04 4 -1 4 C-0.67 2.68 -0.34 1.36 0 0 Z " fill="#585858" transform="translate(90,481)"/>
<path d="M0 0 C0.66 0 1.32 0 2 0 C1.38461538 5.53846154 1.38461538 5.53846154 -0.5625 7.875 C-1.2740625 8.431875 -1.2740625 8.431875 -2 9 C-2.99 8.34 -3.98 7.68 -5 7 C-4.360625 6.5875 -3.72125 6.175 -3.0625 5.75 C-0.79009069 3.82189513 -0.39803561 2.88575819 0 0 Z " fill="#353535" transform="translate(437,481)"/>
<path d="M0 0 C0.99 0 1.98 0 3 0 C3.33 0.99 3.66 1.98 4 3 C4.99 3.33 5.98 3.66 7 4 C7 4.66 7 5.32 7 6 C5.00045254 6.04254356 2.99958364 6.04080783 1 6 C0 5 0 5 -0.0625 2.4375 C-0.041875 1.633125 -0.02125 0.82875 0 0 Z " fill="#DCDCDC" transform="translate(123,483)"/>
<path d="M0 0 C0.66 0 1.32 0 2 0 C3.2380014 3.57644848 2.74926071 6.33694766 2 10 C1.34 10 0.68 10 0 10 C0 6.7 0 3.4 0 0 Z " fill="#1D1D1D" transform="translate(304,481)"/>
<path d="M0 0 C0.99 0.33 1.98 0.66 3 1 C4.1875 4.0625 4.1875 4.0625 5 7 C4.01 7.33 3.02 7.66 2 8 C0.23537317 4.91190305 0 3.76687864 0 0 Z " fill="#313131" transform="translate(316,481)"/>
<path d="M0 0 C3.875 1.75 3.875 1.75 5 4 C2.69 4 0.38 4 -2 4 C-2.33 5.32 -2.66 6.64 -3 8 C-3.36923077 3.44615385 -3.36923077 3.44615385 -1.5 1.1875 C-1.005 0.795625 -0.51 0.40375 0 0 Z " fill="#6A6A6A" transform="translate(362,481)"/>
<path d="M0 0 C0.94875 0.04125 1.8975 0.0825 2.875 0.125 C2.875 0.785 2.875 1.445 2.875 2.125 C1.4828125 2.558125 1.4828125 2.558125 0.0625 3 C-3.22291667 4.0125 -3.22291667 4.0125 -6.125 6.125 C-5.28810868 1.94054341 -4.61542241 0.1846169 0 0 Z " fill="#151515" transform="translate(429.125,475.875)"/>
<path d="M0 0 C2.52349243 3.12432397 4.27256146 6.38060496 6 10 C4.35 9.67 2.7 9.34 1 9 C0.67 6.03 0.34 3.06 0 0 Z " fill="#CB5A41" transform="translate(248,393)"/>
<path d="M0 0 C1.15957207 3.47871621 0.77456651 4.34219645 -0.4375 7.6875 C-0.72496094 8.49574219 -1.01242187 9.30398438 -1.30859375 10.13671875 C-1.65083984 11.05904297 -1.65083984 11.05904297 -2 12 C-2.33 12 -2.66 12 -3 12 C-3.36923077 4.61538462 -3.36923077 4.61538462 -1.5 1.5 C-1.005 1.005 -0.51 0.51 0 0 Z " fill="#328AB0" transform="translate(270,365)"/>
<path d="M0 0 C0.625 1.875 0.625 1.875 1 4 C-1 6 -1 6 -4.125 6.125 C-5.548125 6.063125 -5.548125 6.063125 -7 6 C-7.33 5.34 -7.66 4.68 -8 4 C-6.865625 3.71125 -5.73125 3.4225 -4.5625 3.125 C-3.386875 2.75375 -2.21125 2.3825 -1 2 C-0.67 1.34 -0.34 0.68 0 0 Z " fill="#0F0F0F" transform="translate(73,485)"/>
<path d="M0 0 C0.66 0.33 1.32 0.66 2 1 C2 1.66 2 2.32 2 3 C2.66 3 3.32 3 4 3 C4 4.65 4 6.3 4 8 C2.35 8.33 0.7 8.66 -1 9 C-0.67 8.34 -0.34 7.68 0 7 C0.66 7.33 1.32 7.66 2 8 C1.34 5.36 0.68 2.72 0 0 Z " fill="#DADADA" transform="translate(457,483)"/>
<path d="M0 0 C3.125 -0.1875 3.125 -0.1875 6 0 C6 0.99 6 1.98 6 3 C3.36 3 0.72 3 -2 3 C-1.34 2.01 -0.68 1.02 0 0 Z " fill="#373737" transform="translate(79,481)"/>
<path d="M0 0 C0.66 0.66 1.32 1.32 2 2 C1.46766477 5.51341252 0.47345318 6.52654682 -2 9 C-2.6875 7.3125 -2.6875 7.3125 -3 5 C-1.5625 2.25 -1.5625 2.25 0 0 Z " fill="#3B3B3B" transform="translate(455,476)"/>
<path d="M0 0 C2.9375 1.3125 2.9375 1.3125 6 3 C6.33 3.99 6.66 4.98 7 6 C5.02 6 3.04 6 1 6 C1.33 4.68 1.66 3.36 2 2 C1.34 2 0.68 2 0 2 C0 1.34 0 0.68 0 0 Z " fill="#3F97B2" transform="translate(283,343)"/>
<path d="M0 0 C2.64 0 5.28 0 8 0 C7.67 0.99 7.34 1.98 7 3 C4.69 3 2.38 3 0 3 C0 2.01 0 1.02 0 0 Z " fill="#1B1B1B" transform="translate(361,488)"/>
<path d="M0 0 C0.66 0 1.32 0 2 0 C1.67 1.32 1.34 2.64 1 4 C-0.98 4 -2.96 4 -5 4 C-5.33 3.01 -5.66 2.02 -6 1 C-3.03 1.495 -3.03 1.495 0 2 C0 1.34 0 0.68 0 0 Z " fill="#222222" transform="translate(278,487)"/>
<path d="M0 0 C2.64 0.33 5.28 0.66 8 1 C8 1.66 8 2.32 8 3 C4.7 3 1.4 3 -2 3 C-1.34 2.01 -0.68 1.02 0 0 Z " fill="#090909" transform="translate(170,488)"/>
<path d="M0 0 C3.3 0.99 6.6 1.98 10 3 C10 3.99 10 4.98 10 6 C5.56909529 4.79157144 3.01887244 3.48331435 0 0 Z " fill="#464A6D" transform="translate(44,421)"/>
<path d="M0 0 C-0.99 0 -1.98 0 -3 0 C-3 0.66 -3 1.32 -3 2 C-5.97 2.66 -8.94 3.32 -12 4 C-4.75 -1.69642857 -4.75 -1.69642857 0 0 Z " fill="#AC5A5B" transform="translate(394,370)"/>
<path d="M0 0 C-1.45381897 0.69699552 -2.91322953 1.38233866 -4.375 2.0625 C-5.18710937 2.44535156 -5.99921875 2.82820313 -6.8359375 3.22265625 C-7.55007813 3.47917969 -8.26421875 3.73570312 -9 4 C-9.66 3.67 -10.32 3.34 -11 3 C-7.56065558 -0.95524608 -4.91824601 -1.35534128 0 0 Z " fill="#A03C43" transform="translate(323,370)"/>
<path d="M0 0 C0.99 0.33 1.98 0.66 3 1 C1.02 3.31 -0.96 5.62 -3 8 C-3.33 6.68 -3.66 5.36 -4 4 C-2.0625 1.75 -2.0625 1.75 0 0 Z " fill="#9A2D35" transform="translate(381,374)"/>
<path d="M0 0 C1.2065625 0.0309375 1.2065625 0.0309375 2.4375 0.0625 C2.1075 1.0525 1.7775 2.0425 1.4375 3.0625 C-1.625 4.25 -1.625 4.25 -4.5625 5.0625 C-3.43829114 0.08386076 -3.43829114 0.08386076 0 0 Z " fill="#373737" transform="translate(172.5625,474.9375)"/>
<path d="M0 0 C1.65 0 3.3 0 5 0 C5.625 2.375 5.625 2.375 6 5 C5.34 5.66 4.68 6.32 4 7 C3.566875 5.824375 3.566875 5.824375 3.125 4.625 C2.15087746 1.90328368 2.15087746 1.90328368 0 0 Z " fill="#9F333A" transform="translate(339,384)"/>
<path d="M0 0 C3.96 0.33 7.92 0.66 12 1 C12 1.33 12 1.66 12 2 C7.38 2.33 2.76 2.66 -2 3 C-1.34 2.01 -0.68 1.02 0 0 Z " fill="#EECFCE" transform="translate(396,366)"/>
<path d="M0 0 C0.53625 0.226875 1.0725 0.45375 1.625 0.6875 C-1.04166667 2.02083333 -3.70833333 3.35416667 -6.375 4.6875 C-7.035 4.0275 -7.695 3.3675 -8.375 2.6875 C-2.95961538 -0.38942308 -2.95961538 -0.38942308 0 0 Z M-8.375 4.6875 C-6.375 5.6875 -6.375 5.6875 -6.375 5.6875 Z " fill="#585B80" transform="translate(129.375,341.3125)"/>
<path d="M0 0 C-0.33 0.99 -0.66 1.98 -1 3 C-2.98 3 -4.96 3 -7 3 C-7.33 2.34 -7.66 1.68 -8 1 C-5.23735711 0.40267181 -2.83967231 0 0 0 Z " fill="#191919" transform="translate(97,488)"/>
<path d="M0 0 C0.86625 0.556875 0.86625 0.556875 1.75 1.125 C1.42 2.445 1.09 3.765 0.75 5.125 C0.09 4.795 -0.57 4.465 -1.25 4.125 C-1.25 3.135 -1.25 2.145 -1.25 1.125 C-2.9 1.125 -4.55 1.125 -6.25 1.125 C-2.80384615 -1.09038462 -2.80384615 -1.09038462 0 0 Z " fill="#4D4D4D" transform="translate(73.25,482.875)"/>
</svg>
